#N canvas 344 80 1021 662 10;
#X declare -lib zexy;
#X text 260 104 audiosettings - query and manipulate audio-settings
;
#X msg 48 172 listdevices;
#X text 129 171 get available devices for current driver;
#X obj 141 306 route device;
#X obj 141 328 route out;
#X obj 320 373 unpack f s;
#X obj 320 524 spigot;
#X obj 377 401 symbol2list;
#X obj 377 421 list2symbol _;
#X msg 377 483 1;
#X msg 417 493 0;
#X obj 417 473 t b;
#X obj 284 568 f;
#X obj 48 193 t b a b;
#X msg 280 271 -1;
#X obj 169 129 metro 5000;
#X obj 169 109 tgl 15 0 empty empty empty 17 7 0 10 -262144 -1 -1 0
1;
#X obj 176 661 != -1;
#X obj 48 30 loadbang;
#X obj 48 52 del 5000;
#X msg 169 55 1;
#X msg 176 683 \; pd dsp \$1;
#X obj 284 612 t f f;
#X obj 377 441 sel \$1;
#X obj 80 94 inlet;
#X obj 473 487 outlet;
#X obj 48 261 mediasettings/audiosettings;
#X obj 430 186 declare -lib zexy;
#X floatatom 360 565 5 0 0 0 - - -, f 5;
#X obj 730 373 unpack f s;
#X obj 730 524 spigot;
#X obj 787 401 symbol2list;
#X obj 787 421 list2symbol _;
#X msg 787 483 1;
#X msg 827 493 0;
#X obj 827 473 t b;
#X obj 694 568 f;
#X obj 694 612 t f f;
#X floatatom 770 565 5 0 0 0 - - -, f 5;
#X obj 787 441 sel \$2;
#X obj 883 487 outlet;
#X obj 141 350 route devices, f 14;
#X msg 726 649 driver ALSA \, params @output \$1 2;
#X msg 80 137 listparams;
#X obj 364 319 print;
#X msg 316 649 driver ALSA \, params @input \$1 2 \, params @rate 44100
;
#X connect 1 0 13 0;
#X connect 3 0 4 0;
#X connect 4 0 41 0;
#X connect 5 0 6 0;
#X connect 5 1 7 0;
#X connect 6 0 12 0;
#X connect 6 0 28 0;
#X connect 7 0 8 0;
#X connect 8 0 23 0;
#X connect 8 0 25 0;
#X connect 9 0 6 1;
#X connect 10 0 6 1;
#X connect 11 0 10 0;
#X connect 12 0 22 0;
#X connect 13 0 12 0;
#X connect 13 1 26 0;
#X connect 13 2 14 0;
#X connect 14 0 12 1;
#X connect 14 0 36 1;
#X connect 15 0 1 0;
#X connect 16 0 15 0;
#X connect 17 0 21 0;
#X connect 18 0 19 0;
#X connect 19 0 1 0;
#X connect 20 0 16 0;
#X connect 22 0 17 0;
#X connect 22 1 45 0;
#X connect 23 0 9 0;
#X connect 23 1 11 0;
#X connect 24 0 1 0;
#X connect 26 0 3 0;
#X connect 26 0 44 0;
#X connect 29 0 30 0;
#X connect 29 1 31 0;
#X connect 30 0 36 0;
#X connect 30 0 38 0;
#X connect 31 0 32 0;
#X connect 32 0 39 0;
#X connect 32 0 40 0;
#X connect 33 0 30 1;
#X connect 34 0 30 1;
#X connect 35 0 34 0;
#X connect 36 0 37 0;
#X connect 37 1 42 0;
#X connect 39 0 33 0;
#X connect 39 1 35 0;
#X connect 41 1 5 0;
#X connect 41 1 29 0;
#X connect 42 0 26 0;
#X connect 43 0 13 0;
#X connect 45 0 26 0;
