#N canvas 453 199 1194 881 10;
#X obj 484 289 phasor~;
#X obj 671 373 snapshot~;
#X text 833 641 updated for Pd version 0.42;
#X floatatom 336 177 5 -100 1000 0 - - -, f 5;
#X obj 670 272 loadbang;
#X msg 671 295 1;
#X obj 616 452 +;
#X obj 647 451 f;
#X obj 584 429 t f f;
#X floatatom 727 484 8 0 0 0 - - -, f 8;
#X obj 616 487 t f b;
#X obj 649 516 f;
#X obj 616 516 -;
#X floatatom 729 429 8 0 0 0 - - -, f 8;
#X obj 598 543 -;
#X obj 671 324 tgl 15 0 empty empty empty 17 7 0 10 -262144 -1 -1 1
1;
#X obj 484 315 -~ 0.5;
#X obj 562 628 + 0.5;
#X floatatom 598 570 8 0 0 0 - - -, f 8;
#X obj 802 336 samplerate~;
#X obj 756 363 /;
#X obj 756 336 t f b;
#X obj 723 406 +;
#X text 374 176 playback speed \, samples/sec;
#X text 726 497 new onset is phase plus old onset;
#X text 730 443 extrapolated phase of next sample;
#X text 681 517 new onset minus old onset;
#X text 661 543 back up phasor output by amount the onset advanced
;
#X text 659 556 (approximately zero but not exactly because of;
#X text 661 570 truncation error!);
#X obj 613 200 t b f;
#X text 657 201 set both last-onset and previous-onset;
#X text 657 224 ... and also reset phasor.;
#X text 626 608 convert phase back to range 0-1;
#X text 487 365 convert phase to;
#X text 487 379 range +/-5000;
#X text 488 229 cycles/sec;
#X text 478 219 convert to;
#X text 741 289 in order to change onset to reflect it;
#X text 741 273 Each 100 msec \, poll phase of phasor~;
#X text 790 356 extrapolate snapshot of phase by one;
#X text 789 369 sample to sync with next block;
#X msg 612 225 0;
#X obj 336 153 * 44100;
#X floatatom 336 123 5 0 0 0 - - -, f 5;
#X obj 484 252 / 441000;
#X obj 484 340 *~ 441000;
#X obj 756 387 * 441000;
#X obj 567 604 / 441000;
#X obj 498 661 / 44100;
#X floatatom 498 683 5 0 0 0 - - -, f 5;
#X floatatom 613 173 5 0 0 0 - - -, f 5;
#X floatatom 640 814 5 0 0 0 - - -, f 5;
#X obj 641 759 t b b;
#X obj 640 792 realtime;
#X obj 498 761 outlet position;
#X obj 671 343 metro 10;
#X text 654 172 position in samples;
#X obj 146 599 outlet~;
#X obj 316 599 outlet~;
#X msg 498 718 position \$1;
#X obj 236 27 route open set speed position;
#X obj 236 4 inlet;
#X obj 53 311 soundfiler;
#X msg 53 288 read -maxsize 5.4e+08 -resize \$1 \$2-bufferL \$2-bufferR
;
#X obj 53 262 pack s \$0;
#X obj 53 333 print soundfiler-\$0;
#X obj 798 35 table \$0-bufferL 1000;
#X obj 798 55 table \$0-bufferR 1000;
#X obj 146 547 tabread4~ \$0-bufferL;
#X obj 146 400 unpack s s;
#X msg 146 422 set \$1;
#X msg 206 422 set \$1;
#X obj 317 547 tabread4~ \$0-bufferR;
#X connect 0 0 16 0;
#X connect 1 0 22 0;
#X connect 3 0 45 0;
#X connect 4 0 5 0;
#X connect 5 0 15 0;
#X connect 6 0 7 0;
#X connect 6 0 10 0;
#X connect 6 0 9 0;
#X connect 6 0 49 0;
#X connect 6 0 69 1;
#X connect 6 0 73 1;
#X connect 7 0 6 1;
#X connect 8 0 14 0;
#X connect 8 1 6 0;
#X connect 10 0 11 1;
#X connect 10 0 12 0;
#X connect 10 1 11 0;
#X connect 11 0 12 1;
#X connect 12 0 14 1;
#X connect 14 0 18 0;
#X connect 14 0 48 0;
#X connect 15 0 56 0;
#X connect 16 0 46 0;
#X connect 17 0 0 1;
#X connect 19 0 20 1;
#X connect 20 0 47 0;
#X connect 21 0 20 0;
#X connect 21 1 19 0;
#X connect 22 0 8 0;
#X connect 22 0 13 0;
#X connect 30 0 42 0;
#X connect 30 1 11 1;
#X connect 30 1 6 1;
#X connect 42 0 8 0;
#X connect 43 0 3 0;
#X connect 44 0 43 0;
#X connect 45 0 0 0;
#X connect 45 0 21 0;
#X connect 46 0 1 0;
#X connect 46 0 69 0;
#X connect 46 0 73 0;
#X connect 47 0 22 1;
#X connect 48 0 17 0;
#X connect 49 0 50 0;
#X connect 50 0 53 0;
#X connect 50 0 60 0;
#X connect 51 0 30 0;
#X connect 53 0 54 0;
#X connect 53 1 54 1;
#X connect 54 0 52 0;
#X connect 56 0 1 0;
#X connect 60 0 55 0;
#X connect 61 0 65 0;
#X connect 61 1 70 0;
#X connect 61 2 44 0;
#X connect 61 3 51 0;
#X connect 62 0 61 0;
#X connect 63 0 66 0;
#X connect 64 0 63 0;
#X connect 65 0 64 0;
#X connect 69 0 58 0;
#X connect 70 0 71 0;
#X connect 70 1 72 0;
#X connect 71 0 69 0;
#X connect 72 0 73 0;
#X connect 73 0 59 0;
