#N canvas 593 108 469 558 10;
#X declare -path abs -path bin;
#X obj 350 83 loadbang;
#X msg 350 105 \; pd dsp 1;
#X obj 28 299 env~;
#X floatatom 28 341 5 0 0 0 - - -, f 5;
#X obj 68 299 env~;
#X floatatom 68 341 5 0 0 0 - - -, f 5;
#N canvas 199 236 642 507 sendOSC 0;
#X obj 221 170 osc/packOSC;
#X obj 221 299 net/udpsend;
#X msg 261 269 disconnect;
#X obj 221 192 spigot;
#X obj 253 223 loadbang;
#X msg 253 244 connect 127.0.0.1 6667;
#X msg 221 116 send /speed \$1;
#X msg 338 116 send /position \$1;
#X obj 221 361 tgl 15 0 empty empty empty 17 7 0 10 -262144 -1 -1 1
1;
#X obj 338 91 inlet;
#X obj 221 91 inlet;
#X obj 423 177 osc/unpackOSC;
#X obj 423 199 osc/routeOSC /reconnect;
#X obj 423 221 t b b;
#X obj 423 157 net/udpreceive 6666;
#X obj 274 426 delay 1000;
#X obj 85 98 closebang;
#X msg 85 120 send /quit;
#X obj 254 369 sel 0 1;
#X msg 278 399 stop;
#X msg 75 230 send /ping;
#X obj 75 206 metro 1000;
#X obj 221 321 t f f f;
#X obj 63 23 inlet;
#X msg 63 45 /open \$1 \, /speed 0;
#X connect 0 0 3 0;
#X connect 1 0 22 0;
#X connect 2 0 1 0;
#X connect 3 0 1 0;
#X connect 4 0 5 0;
#X connect 5 0 1 0;
#X connect 6 0 0 0;
#X connect 7 0 0 0;
#X connect 9 0 7 0;
#X connect 10 0 6 0;
#X connect 11 0 12 0;
#X connect 12 0 13 0;
#X connect 13 0 5 0;
#X connect 13 1 2 0;
#X connect 14 0 11 0;
#X connect 15 0 5 0;
#X connect 16 0 17 0;
#X connect 17 0 0 0;
#X connect 18 0 15 0;
#X connect 18 1 19 0;
#X connect 19 0 15 0;
#X connect 20 0 0 0;
#X connect 21 0 20 0;
#X connect 22 0 21 0;
#X connect 22 0 8 0;
#X connect 22 1 18 0;
#X connect 22 2 3 1;
#X connect 23 0 24 0;
#X connect 24 0 0 0;
#X restore 108 495 pd sendOSC;
#N canvas 57 143 614 599 readsf~ 0;
#X obj 261 87 ggee/getdir;
#X obj 229 29 loadbang;
#X obj 173 330 dac~ 1 2;
#X obj 106 237 bng 15 250 50 0 empty empty empty 17 7 0 10 -262144
-1 -1;
#X msg 70 240 0;
#X obj 137 330 env~;
#X floatatom 137 352 5 0 0 0 - - -, f 5;
#X obj 174 275 sfread2~ 2;
#N canvas 1 164 450 435 getSR 0;
#X msg 162 109 \$1;
#X msg 162 65 read \$1;
#X obj 162 87 iemlib/soundfile_info;
#X obj 144 164 *;
#X obj 162 44 inlet;
#X obj 102 74 inlet;
#X obj 105 342 outlet;
#X obj 173 164 outlet;
#X msg 266 145 \$3;
#X obj 144 229 <;
#X obj 105 261 spigot;
#X obj 105 206 t f f;
#X obj 222 283 sel 1;
#X msg 105 283 bang \, index \$1;
#X connect 0 0 3 1;
#X connect 0 0 7 0;
#X connect 1 0 2 0;
#X connect 2 0 0 0;
#X connect 2 0 8 0;
#X connect 3 0 11 0;
#X connect 4 0 1 0;
#X connect 5 0 3 0;
#X connect 8 0 9 1;
#X connect 9 0 10 1;
#X connect 9 0 12 0;
#X connect 10 0 13 0;
#X connect 11 0 10 0;
#X connect 11 1 9 0;
#X connect 12 1 6 0;
#X connect 13 0 6 0;
#X restore 497 225 pd getSR;
#X msg 174 229 open \$1 \, interp 1 \, loop 0 \, bang;
#X floatatom 355 31 5 0 0 0 - - -, f 5;
#X msg 68 201 index;
#X obj 239 330 route index;
#X obj 239 425 /;
#X floatatom 239 447 5 0 0 0 - - -, f 5;
#X obj 68 146 tgl 15 0 empty empty empty 17 7 0 10 -262144 -1 -1 1
1;
#X obj 174 151 pack s s;
#X obj 229 59 t b b;
#X obj 275 58 bng 15 250 50 0 empty empty empty 17 7 0 10 -262144 -1
-1;
#X msg 174 179 symbol \$2/../audio/\$1;
#X obj 68 123 loadbang;
#X msg 156 88 PARTIE1A.wav;
#X obj 239 467 outlet;
#X obj 68 172 metro 10;
#X text 278 446 position en seconde dans le fichier audio, f 42;
#X obj 497 23 inlet index;
#X obj 355 6 inlet speed;
#X obj 22 16 inlet file;
#X floatatom 572 167 5 0 0 0 - - -, f 5;
#X obj 355 56 t f f;
#X obj 497 168 f;
#X obj 355 76 > 0;
#X obj 355 96 change -1;
#X obj 355 116 sel 1;
#X obj 82 330 env~;
#X floatatom 82 352 5 0 0 0 - - -, f 5;
#X connect 0 0 16 1;
#X connect 1 0 17 0;
#X connect 3 0 7 0;
#X connect 4 0 7 0;
#X connect 5 0 6 0;
#X connect 7 0 5 0;
#X connect 7 0 2 0;
#X connect 7 1 2 1;
#X connect 7 1 34 0;
#X connect 7 2 12 0;
#X connect 8 0 7 0;
#X connect 8 1 13 1;
#X connect 9 0 7 0;
#X connect 10 0 29 0;
#X connect 11 0 7 0;
#X connect 12 0 13 0;
#X connect 13 0 14 0;
#X connect 14 0 22 0;
#X connect 15 0 23 0;
#X connect 16 0 19 0;
#X connect 17 0 21 0;
#X connect 17 1 0 0;
#X connect 18 0 0 0;
#X connect 19 0 9 0;
#X connect 19 0 8 1;
#X connect 20 0 15 0;
#X connect 21 0 16 0;
#X connect 23 0 11 0;
#X connect 25 0 30 0;
#X connect 26 0 10 0;
#X connect 27 0 16 0;
#X connect 28 0 8 0;
#X connect 29 0 31 0;
#X connect 29 1 7 1;
#X connect 30 0 8 0;
#X connect 31 0 32 0;
#X connect 32 0 33 0;
#X connect 33 0 30 0;
#X connect 34 0 35 0;
#X restore 131 419 pd readsf~;
#N canvas 299 130 937 612 source 0;
#X obj 604 143 ggee/getdir;
#X obj 604 120 loadbang;
#X floatatom 623 264 5 0 0 0 - - -, f 5;
#X obj 41 343 adc~ 1 2;
#X obj 604 418 *~;
#X obj 658 417 *~;
#X obj 303 565 outlet~;
#X obj 40 420 *~ 1;
#X obj 94 419 *~ 1;
#X obj 363 565 outlet~;
#X obj 71 41 t f f;
#X obj 671 119 bng 15 250 50 0 empty empty empty 17 7 0 10 -262144
-1 -1;
#X obj 698 388 == 1;
#X obj 124 355 == 0;
#X obj 184 143 ggee/getdir;
#X obj 184 120 loadbang;
#X floatatom 205 264 5 0 0 0 - - -, f 5;
#X obj 184 418 *~;
#X obj 238 417 *~;
#X obj 251 119 bng 15 250 50 0 empty empty empty 17 7 0 10 -262144
-1 -1;
#X obj 256 388 == 2;
#X floatatom 722 278 5 0 0 0 - - -, f 5;
#X floatatom 283 299 5 0 0 0 - - -, f 5;
#X msg 205 317 index \$1;
#X obj 184 360 sfread2~ 2;
#X obj 604 360 sfread2~ 2;
#X msg 184 223 open \$1 \, interp 1 \, index 0 \, loop 1 \, bang;
#X msg 604 193 open \$1 \, interp 1 \, index 0 \, loop 1 \, bang;
#X msg 623 322 index \$1;
#N canvas 1 80 450 300 getSR 0;
#X msg 162 139 \$1;
#X msg 162 95 read \$1;
#X obj 162 117 iemlib/soundfile_info;
#X obj 144 164 *;
#X obj 162 74 inlet;
#X obj 102 74 inlet;
#X obj 144 186 outlet;
#X connect 0 0 3 1;
#X connect 1 0 2 0;
#X connect 2 0 0 0;
#X connect 3 0 6 0;
#X connect 4 0 1 0;
#X connect 5 0 3 0;
#X restore 205 288 pd getSR;
#N canvas 0 93 450 300 getSR 0;
#X msg 162 139 \$1;
#X msg 162 95 read \$1;
#X obj 162 117 iemlib/soundfile_info;
#X obj 144 164 *;
#X obj 162 74 inlet;
#X obj 102 74 inlet;
#X obj 144 186 outlet;
#X connect 0 0 3 1;
#X connect 1 0 2 0;
#X connect 2 0 0 0;
#X connect 3 0 6 0;
#X connect 4 0 1 0;
#X connect 5 0 3 0;
#X restore 623 288 pd getSR;
#X obj 530 117 loadbang;
#X msg 530 139 0.5;
#X msg 603 170 symbol \$1/Serato2A.wav;
#X msg 184 170 symbol \$1/Serato2B.wav;
#X obj 457 91 inlet speed;
#X obj 527 191 t f;
#X obj 400 117 loadbang;
#X obj 400 161 t f;
#X obj 327 91 inlet seek;
#X msg 400 139 0;
#N canvas 1196 322 443 262 old_snippet 0;
#X floatatom 55 56 5 0 0 0 - - -, f 5;
#X obj 36 174 *~;
#X obj 90 173 *~;
#X obj 108 144 == 1;
#X floatatom 154 34 5 0 0 0 - - -, f 5;
#X obj 36 116 readanysf~ 2 100 512;
#X msg 154 53 speed \$1;
#X msg 55 78 time_seek \$1;
#X obj 173 140 route ready;
#X obj 173 162 sel 1;
#X msg 173 184 play \, speed 0.5;
#X connect 0 0 7 0;
#X connect 3 0 2 1;
#X connect 3 0 1 1;
#X connect 4 0 6 0;
#X connect 5 0 1 0;
#X connect 5 1 2 0;
#X connect 5 2 8 0;
#X connect 6 0 5 0;
#X connect 7 0 5 0;
#X connect 8 0 9 0;
#X connect 9 0 10 0;
#X connect 10 0 5 0;
#X restore 404 376 pd old_snippet;
#X obj 71 19 inlet source;
#X floatatom 537 341 5 0 0 0 - - -, f 5;
#X floatatom 727 322 5 0 0 0 - - -, f 5;
#X connect 0 0 33 0;
#X connect 1 0 0 0;
#X connect 2 0 30 0;
#X connect 3 0 7 0;
#X connect 3 1 8 0;
#X connect 4 0 6 0;
#X connect 5 0 9 0;
#X connect 7 0 6 0;
#X connect 8 0 9 0;
#X connect 10 0 12 0;
#X connect 10 0 20 0;
#X connect 10 1 13 0;
#X connect 11 0 0 0;
#X connect 12 0 5 1;
#X connect 12 0 4 1;
#X connect 13 0 8 1;
#X connect 13 0 7 1;
#X connect 14 0 34 0;
#X connect 15 0 14 0;
#X connect 16 0 29 0;
#X connect 17 0 6 0;
#X connect 18 0 9 0;
#X connect 19 0 14 0;
#X connect 20 0 18 1;
#X connect 20 0 17 1;
#X connect 21 0 25 1;
#X connect 22 0 24 1;
#X connect 23 0 24 0;
#X connect 24 0 17 0;
#X connect 24 1 18 0;
#X connect 25 0 4 0;
#X connect 25 1 5 0;
#X connect 26 0 24 0;
#X connect 27 0 25 0;
#X connect 28 0 25 0;
#X connect 29 0 23 0;
#X connect 30 0 28 0;
#X connect 30 0 43 0;
#X connect 31 0 32 0;
#X connect 32 0 36 0;
#X connect 33 0 27 0;
#X connect 33 0 30 1;
#X connect 34 0 26 0;
#X connect 34 0 29 1;
#X connect 35 0 36 0;
#X connect 36 0 21 0;
#X connect 36 0 22 0;
#X connect 37 0 40 0;
#X connect 38 0 2 0;
#X connect 38 0 16 0;
#X connect 39 0 38 0;
#X connect 40 0 38 0;
#X connect 42 0 10 0;
#X connect 44 0 28 0;
#X restore 163 189 pd source;
#X obj 163 80 vradio 15 1 0 3 empty empty empty 0 -8 0 10 -262144 -1
-1 0;
#X text 182 79 live input;
#X obj 29 393 vsl 15 128 0 127 0 0 empty empty empty 0 -9 0 10 -262144
-1 -1 8166 1;
#X obj 69 393 vsl 15 128 0 127 0 0 empty empty empty 0 -9 0 10 -262144
-1 -1 8125 1;
#X text 182 96 serato face A;
#X text 182 111 serato face B;
#N canvas 51 102 953 485 analysis 0;
#X floatatom 236 241 5 0 0 0 speed - -, f 5;
#X floatatom 351 318 5 0 0 0 position - -, f 5;
#X obj 143 302 route float;
#N canvas 410 279 450 300 speedlimit 0;
#X obj 159 75 inlet;
#X obj 159 141 t a b b;
#X msg 210 186 0;
#X obj 286 248 t f;
#X obj 182 166 delay 10;
#X obj 159 257 outlet;
#X obj 159 119 spigot 1;
#X msg 182 206 1;
#X connect 0 0 6 0;
#X connect 1 0 5 0;
#X connect 1 1 4 0;
#X connect 1 2 2 0;
#X connect 2 0 3 0;
#X connect 3 0 6 1;
#X connect 4 0 7 0;
#X connect 6 0 1 0;
#X connect 7 0 3 0;
#X restore 143 328 pd speedlimit;
#X obj 218 376 *;
#X floatatom 143 362 5 0 0 0 - - -, f 5;
#X obj 142 88 inlet~;
#X obj 235 88 inlet~;
#X obj 218 523 outlet;
#X obj 429 664 outlet;
#X obj 236 218 * 2;
#X obj 555 93 inlet;
#X obj 689 244 outlet;
#X floatatom 649 243 5 0 0 0 - - -, f 5;
#X obj 555 176 t f b, f 6;
#X obj 329 66 inlet;
#X floatatom 468 511 5 0 0 0 - - -, f 5;
#X obj 468 559 abs;
#X obj 429 605 spigot;
#X obj 468 489 - 1e+07;
#X obj 351 295 * 1000;
#X obj 555 145 * 1000;
#X obj 143 193 vinylcontrol~ serato_2a 2, f 27;
#N canvas 0 119 450 366 compute_second_duration 0;
#X obj 214 71 int;
#X obj 214 93 change;
#X obj 214 114 t b b;
#X obj 215 135 realtime;
#X obj 214 51 * 10;
#X obj 216 155 * 10;
#X obj 216 274 puremapping/iir 100;
#X msg 143 231 reset \$1;
#X obj 142 209 f;
#X floatatom 233 197 5 0 0 0 - - -, f 5;
#X obj 216 296 / 1000;
#X obj 216 318 outlet;
#X obj 214 29 inlet;
#X obj 142 168 inlet;
#X connect 0 0 1 0;
#X connect 1 0 2 0;
#X connect 2 0 3 0;
#X connect 2 1 3 1;
#X connect 3 0 5 0;
#X connect 4 0 0 0;
#X connect 5 0 6 0;
#X connect 5 0 8 1;
#X connect 5 0 9 0;
#X connect 6 0 10 0;
#X connect 7 0 6 0;
#X connect 8 0 7 0;
#X connect 10 0 11 0;
#X connect 12 0 4 0;
#X connect 13 0 8 0;
#X restore 689 219 pd compute_second_duration;
#X obj 329 91 unpack s f f;
#X obj 351 351 -;
#X obj 429 444 t f f f;
#X text 374 68 [vinyl_type offset timestretch(;
#X msg 650 138 set \$1;
#X obj 650 160 outlet;
#X obj 383 404 moses 0;
#X obj 383 424 t b;
#X msg 383 444 1e+09;
#X floatatom 369 220 5 0 0 0 - - -, f 5;
#X msg 469 141 set \$1;
#X obj 469 163 outlet;
#X obj 390 183 inlet;
#X obj 468 579 > 5;
#X obj 236 458 > 0;
#X obj 218 480 *;
#X obj 351 372 t f f;
#X msg 329 152 vinyl \$1;
#X obj 329 128 symbol;
#X floatatom 568 505 5 0 0 0 - - -, f 5;
#X obj 525 540 * 100;
#X floatatom 267 454 5 0 0 0 - - -, f 5;
#X connect 0 0 4 1;
#X connect 1 0 25 0;
#X connect 2 0 3 0;
#X connect 3 0 5 0;
#X connect 3 0 4 0;
#X connect 4 0 39 0;
#X connect 6 0 22 0;
#X connect 7 0 22 1;
#X connect 10 0 0 0;
#X connect 11 0 21 0;
#X connect 14 0 20 1;
#X connect 14 1 23 0;
#X connect 15 0 24 0;
#X connect 16 0 17 0;
#X connect 17 0 37 0;
#X connect 18 0 9 0;
#X connect 19 0 16 0;
#X connect 20 0 1 0;
#X connect 20 0 23 1;
#X connect 21 0 14 0;
#X connect 22 0 2 0;
#X connect 22 1 10 0;
#X connect 22 2 20 0;
#X connect 23 0 13 0;
#X connect 23 0 12 0;
#X connect 24 0 42 0;
#X connect 24 1 33 0;
#X connect 24 1 34 0;
#X connect 24 2 21 0;
#X connect 24 2 28 0;
#X connect 25 0 40 0;
#X connect 26 0 18 0;
#X connect 26 1 19 1;
#X connect 26 2 19 0;
#X connect 26 2 43 0;
#X connect 28 0 29 0;
#X connect 30 0 31 0;
#X connect 30 1 26 0;
#X connect 31 0 32 0;
#X connect 32 0 19 1;
#X connect 33 0 25 1;
#X connect 34 0 35 0;
#X connect 36 0 33 0;
#X connect 37 0 18 1;
#X connect 38 0 39 1;
#X connect 39 0 8 0;
#X connect 40 0 38 0;
#X connect 40 0 45 0;
#X connect 40 1 30 0;
#X connect 41 0 22 2;
#X connect 42 0 41 0;
#X restore 164 260 pd analysis;
#N canvas -280 355 1351 362 load 0;
#X obj 273 48 route 9 10 11 12 25 26 27 28;
#X obj 263 87 tgl 15 0 empty empty empty 17 7 0 10 -262144 -1 -1 0
1;
#X obj 293 87 tgl 15 0 empty empty empty 17 7 0 10 -262144 -1 -1 1
1;
#X obj 323 87 tgl 15 0 empty empty empty 17 7 0 10 -262144 -1 -1 0
1;
#X obj 353 87 tgl 15 0 empty empty empty 17 7 0 10 -262144 -1 -1 0
1;
#X obj 383 87 tgl 15 0 empty empty empty 17 7 0 10 -262144 -1 -1 0
1;
#X obj 413 87 tgl 15 0 empty empty empty 17 7 0 10 -262144 -1 -1 0
1;
#X obj 441 87 tgl 15 0 empty empty empty 17 7 0 10 -262144 -1 -1 0
1;
#X obj 473 87 tgl 15 0 empty empty empty 17 7 0 10 -262144 -1 -1 0
1;
#N canvas 0 93 692 503 notein 0;
#X obj 274 39 notein;
#X obj 300 268 noteout;
#X obj 412 220 t a;
#X obj 274 171 poly 1 1;
#X obj 274 116 stripnote;
#X obj 327 229 * 13;
#X obj 327 208 > 0;
#X obj 201 268 pack 0 0;
#X obj 201 290 outlet;
#X connect 0 0 4 0;
#X connect 0 1 4 1;
#X connect 0 2 2 0;
#X connect 2 0 1 2;
#X connect 3 1 1 0;
#X connect 3 1 7 0;
#X connect 3 2 6 0;
#X connect 4 0 3 0;
#X connect 4 1 3 1;
#X connect 5 0 1 1;
#X connect 6 0 5 0;
#X connect 6 0 7 1;
#X connect 7 0 8 0;
#X restore 273 27 pd notein;
#X obj 133 294 outlet son;
#X obj 93 142 sel 1;
#X obj 243 142 sel 1;
#X obj 538 297 outlet image;
#X obj 538 267 symbol;
#X obj 350 143 sel 1;
#X msg 350 176 PARTIE1B.wav;
#X msg 359 199 PARTIE1B.mov;
#X obj 457 145 sel 1;
#X obj 567 145 sel 1;
#X obj 674 146 sel 1;
#X obj 1070 289 outlet vinyl;
#X obj 789 143 sel 1;
#X msg 789 176 PARTIE1B.wav;
#X msg 798 199 PARTIE1B.mov;
#X obj 896 144 sel 1;
#X msg 896 177 PARTIE1B.wav;
#X msg 905 200 PARTIE1B.mov;
#X msg 93 175 EntréePublic.wav;
#X msg 243 175 PARTIE1A.wav;
#X msg 457 178 Entracte.wav;
#X msg 466 201 Entracte.mov;
#X msg 567 178 PARTIE2A.wav;
#X msg 576 201 PARTIE2A.mov;
#X msg 674 179 PARTIE2B.wav;
#X msg 683 202 PARTIE2B.mov;
#X msg 102 198 PARTIE1A.mov;
#X msg 252 199 partie1A;
#X msg 1070 225 serato_2a 30 1;
#X text 1075 205 face offset timestretch;
#X msg 1081 254 serato_2b 30 1;
#X connect 0 0 1 0;
#X connect 0 1 2 0;
#X connect 0 2 3 0;
#X connect 0 3 4 0;
#X connect 0 4 5 0;
#X connect 0 5 6 0;
#X connect 0 6 7 0;
#X connect 0 7 8 0;
#X connect 1 0 11 0;
#X connect 2 0 12 0;
#X connect 3 0 15 0;
#X connect 4 0 18 0;
#X connect 5 0 19 0;
#X connect 6 0 20 0;
#X connect 7 0 22 0;
#X connect 8 0 25 0;
#X connect 9 0 0 0;
#X connect 11 0 28 0;
#X connect 11 0 40 0;
#X connect 11 0 36 0;
#X connect 12 0 29 0;
#X connect 12 0 37 0;
#X connect 12 0 40 0;
#X connect 14 0 13 0;
#X connect 15 0 16 0;
#X connect 15 0 17 0;
#X connect 15 0 38 0;
#X connect 16 0 10 0;
#X connect 17 0 14 0;
#X connect 18 0 30 0;
#X connect 18 0 31 0;
#X connect 18 0 38 0;
#X connect 19 0 32 0;
#X connect 19 0 33 0;
#X connect 19 0 40 0;
#X connect 20 0 34 0;
#X connect 20 0 35 0;
#X connect 20 0 38 0;
#X connect 22 0 23 0;
#X connect 22 0 24 0;
#X connect 23 0 10 0;
#X connect 24 0 14 0;
#X connect 25 0 26 0;
#X connect 25 0 27 0;
#X connect 26 0 10 0;
#X connect 27 0 14 0;
#X connect 28 0 10 0;
#X connect 29 0 10 0;
#X connect 30 0 10 0;
#X connect 31 0 14 0;
#X connect 32 0 10 0;
#X connect 33 0 14 0;
#X connect 34 0 10 0;
#X connect 35 0 14 0;
#X connect 36 0 14 0;
#X connect 37 0 14 0;
#X connect 38 0 21 0;
#X connect 40 0 21 0;
#X restore 85 192 pd load;
#N canvas 354 191 859 300 init 0;
#X obj 131 85 declare -path abs -path bin;
#X obj 64 132 bng 15 250 50 0 empty empty empty 17 7 0 10 -262144 -1
-1;
#X obj 64 158 selectAudioDevice USB_AUDIO_CODEC_(hardware) HDA_Intel_PCH_(hardware)
, f 69;
#X obj 64 199 spigot;
#X obj 102 179 tgl 15 0 empty empty empty 17 7 0 10 -262144 -1 -1 0
1;
#X obj 64 221 print;
#X connect 1 0 2 0;
#X connect 2 0 3 0;
#X connect 3 0 5 0;
#X connect 4 0 3 1;
#X restore 64 58 pd init;
#X obj 311 226 nbx 5 14 -1e+37 1e+37 0 1 empty empty empty 0 -8 0 10
-262144 -1 -1 1 256;
#X floatatom 238 285 5 0 0 0 - - -, f 5;
#N canvas 0 125 659 456 readme 0;
#X text 108 21 La valeur de timecode n'est utilisé que lors d'un saut.
C'est à dire lorsqu'on déplace le bras sur la platine.;
#X text 111 161 Par exemple lorsque le vinyle tourne à vitesse nominale
\, si le son dure 20 minutes \, en se plaçant au milieu de la face
A vinyle on sera à la 5e minute (car la face A fait 10 minutes) et
à la fin on sera à la 10e minute. Sans pouvoir aller plus loin !
Alors que si on règle le stretch à 2 au milieu du vinyle on sera
à la 10e minute !;
#X text 103 56 Sur le vinyle les sillons sont plus larges toutes les
100 valeurs de timecode. Ça fait un repère visuel pour ne pas sauter
n'importe où.;
#X text 103 104 Le facteur "Time Stretch" permet d'étirer le timecode.
Ça peut servir pour pouvoir se déplacer dans un son plus long que
la durée du vinyle.;
#X restore 367 255 pd readme;
#X floatatom 193 150 5 0 0 0 - - -, f 5;
#X floatatom 223 170 5 0 0 0 - - -, f 5;
#X text 234 149 position;
#X text 265 169 vitesse;
#X text 145 51 Choisir l'entrée :;
#X text 155 61 (live par défault);
#X text 277 285 Real stretch factor;
#X text 313 211 Time stretch;
#X obj 219 226 nbx 5 14 -1e+37 1e+37 0 1 empty empty empty 0 -8 0 10
-262144 -1 -1 30 256;
#X text 221 211 Offset;
#X floatatom 201 353 5 0 0 0 - - -, f 5;
#X floatatom 164 353 5 0 0 0 - - -, f 5;
#X connect 0 0 1 0;
#X connect 2 0 3 0;
#X connect 2 0 11 0;
#X connect 4 0 5 0;
#X connect 4 0 12 0;
#X connect 7 0 6 2;
#X connect 8 0 2 0;
#X connect 8 0 15 0;
#X connect 8 1 4 0;
#X connect 8 1 15 1;
#X connect 9 0 8 0;
#X connect 15 0 32 0;
#X connect 15 1 31 0;
#X connect 15 2 29 0;
#X connect 15 3 18 0;
#X connect 15 4 19 0;
#X connect 16 0 7 0;
#X connect 16 1 6 0;
#X connect 16 2 15 2;
#X connect 18 0 15 4;
#X connect 21 0 8 1;
#X connect 22 0 8 2;
#X connect 29 0 15 3;
#X connect 31 0 7 2;
#X connect 32 0 7 1;
