#N canvas 869 107 355 708 10;
#X obj 61 652 loadbang;
#X msg 61 674 \; pd dsp 1;
#X obj 28 299 env~;
#X floatatom 28 341 5 0 0 0 - - -, f 5;
#X obj 68 299 env~;
#X floatatom 68 341 5 0 0 0 - - -, f 5;
#N canvas 1 181 642 507 sendOSC 0;
#X obj 221 170 osc/packOSC;
#X obj 221 299 net/udpsend;
#X msg 261 269 disconnect;
#X obj 221 192 spigot;
#X obj 253 223 loadbang;
#X msg 253 244 connect 127.0.0.1 6667;
#X msg 221 116 send /speed \$1;
#X msg 338 116 send /position \$1;
#X obj 221 361 tgl 15 0 empty empty empty 17 7 0 10 -262144 -1 -1 1
1;
#X obj 338 91 inlet;
#X obj 221 91 inlet;
#X obj 423 177 osc/unpackOSC;
#X obj 423 199 osc/routeOSC /reconnect;
#X obj 423 221 t b b;
#X obj 423 157 net/udpreceive 6666;
#X obj 274 426 delay 1000;
#X obj 85 98 closebang;
#X msg 85 120 send /quit;
#X obj 254 369 sel 0 1;
#X msg 278 399 stop;
#X msg 75 230 send /ping;
#X obj 75 206 metro 1000;
#X obj 221 321 t f f f;
#X connect 0 0 3 0;
#X connect 1 0 22 0;
#X connect 2 0 1 0;
#X connect 3 0 1 0;
#X connect 4 0 5 0;
#X connect 5 0 1 0;
#X connect 6 0 0 0;
#X connect 7 0 0 0;
#X connect 9 0 7 0;
#X connect 10 0 6 0;
#X connect 11 0 12 0;
#X connect 12 0 13 0;
#X connect 13 0 5 0;
#X connect 13 1 2 0;
#X connect 14 0 11 0;
#X connect 15 0 5 0;
#X connect 16 0 17 0;
#X connect 17 0 0 0;
#X connect 18 0 15 0;
#X connect 18 1 19 0;
#X connect 19 0 15 0;
#X connect 20 0 0 0;
#X connect 21 0 20 0;
#X connect 22 0 21 0;
#X connect 22 0 8 0;
#X connect 22 1 18 0;
#X connect 22 2 3 1;
#X restore 252 359 pd sendOSC;
#N canvas 376 200 614 397 readsf~ 0;
#X obj 355 66 inlet;
#X obj 475 23 inlet;
#X obj 261 87 ggee/getdir;
#X obj 355 137 line;
#X obj 228 29 loadbang;
#X obj 173 330 dac~ 1 2;
#X obj 106 237 bng 15 250 50 0 empty empty empty 17 7 0 10 -262144
-1 -1;
#X msg 70 240 0;
#X obj 79 302 env~;
#X floatatom 79 324 5 0 0 0 - - -, f 5;
#X obj 436 83 -, f 2;
#X floatatom 394 49 5 0 0 0 - - -, f 5;
#X floatatom 436 105 5 0 0 0 - - -, f 5;
#X obj 475 45 t f f;
#X obj 507 105 abs;
#X obj 507 151 sel 1;
#X obj 461 149 f;
#X obj 507 129 > 0.2;
#X obj 174 274 sfread2~ 2;
#X floatatom 461 224 5 0 0 0 - - -, f 5;
#N canvas 1 84 450 300 getSR 0;
#X msg 162 139 \$1;
#X msg 162 95 read \$1;
#X obj 162 117 iemlib/soundfile_info;
#X obj 144 164 *;
#X obj 162 74 inlet;
#X obj 102 74 inlet;
#X obj 144 186 outlet;
#X obj 196 186 outlet;
#X connect 0 0 3 1;
#X connect 0 0 7 0;
#X connect 1 0 2 0;
#X connect 2 0 0 0;
#X connect 3 0 6 0;
#X connect 4 0 1 0;
#X connect 5 0 3 0;
#X restore 461 243 pd getSR;
#X msg 461 265 index \$1;
#X msg 174 243 open \$1 \, interp 1 \, loop 0 \, bang;
#X floatatom 355 91 5 0 0 0 - - -, f 5;
#X msg 68 201 index;
#X obj 276 340 route index;
#X floatatom 499 322 5 0 0 0 - - -, f 5;
#X obj 444 314 /;
#X floatatom 444 336 5 0 0 0 - - -, f 5;
#X obj 68 152 metro 100;
#X obj 68 126 tgl 15 0 empty empty empty 17 7 0 10 -262144 -1 -1 0
1;
#X msg 355 115 \$1 100;
#X obj 174 151 pack s s;
#X obj 229 59 t b b;
#X msg 43 86 big_buck_bunny_720p_48kHz.wav;
#X obj 275 58 bng 15 250 50 0 empty empty empty 17 7 0 10 -262144 -1
-1;
#X msg 174 179 symbol \$2/../audio/\$1;
#X connect 0 0 23 0;
#X connect 1 0 13 0;
#X connect 2 0 32 1;
#X connect 3 0 18 1;
#X connect 4 0 33 0;
#X connect 6 0 18 0;
#X connect 7 0 18 0;
#X connect 8 0 9 0;
#X connect 10 0 12 0;
#X connect 10 0 14 0;
#X connect 13 0 10 1;
#X connect 13 1 16 1;
#X connect 14 0 17 0;
#X connect 15 0 16 0;
#X connect 16 0 19 0;
#X connect 17 0 15 0;
#X connect 18 0 8 0;
#X connect 18 0 5 0;
#X connect 18 1 5 1;
#X connect 18 2 25 0;
#X connect 19 0 20 0;
#X connect 20 0 21 0;
#X connect 20 1 26 0;
#X connect 20 1 27 1;
#X connect 21 0 18 0;
#X connect 22 0 18 0;
#X connect 23 0 31 0;
#X connect 24 0 18 0;
#X connect 25 0 27 0;
#X connect 27 0 28 0;
#X connect 27 0 10 0;
#X connect 29 0 24 0;
#X connect 30 0 29 0;
#X connect 31 0 3 0;
#X connect 32 0 36 0;
#X connect 33 0 34 0;
#X connect 33 1 2 0;
#X connect 34 0 32 0;
#X connect 35 0 2 0;
#X connect 36 0 22 0;
#X connect 36 0 20 1;
#X restore 164 359 pd readsf~;
#N canvas 128 162 1364 605 source 0;
#X obj 294 73 ggee/getdir;
#X obj 294 50 loadbang;
#X floatatom 313 194 5 0 0 0 - - -, f 5;
#X obj 475 271 adc~ 1 2;
#X obj 294 348 *~;
#X obj 348 347 *~;
#X obj 346 416 outlet~;
#X obj 474 348 *~ 1;
#X obj 528 347 *~ 1;
#X obj 406 416 outlet~;
#X obj 605 73 inlet;
#X obj 605 95 t f f;
#X obj 361 49 bng 15 250 50 0 empty empty empty 17 7 0 10 -262144 -1
-1;
#X obj 388 318 == 1;
#X obj 637 146 == 0;
#X obj -26 73 ggee/getdir;
#X obj -26 50 loadbang;
#X floatatom -5 194 5 0 0 0 - - -, f 5;
#X obj -26 348 *~;
#X obj 28 347 *~;
#X obj 41 49 bng 15 250 50 0 empty empty empty 17 7 0 10 -262144 -1
-1;
#X obj 46 318 == 2;
#X floatatom 412 208 5 0 0 0 - - -, f 5;
#X floatatom 73 229 5 0 0 0 - - -, f 5;
#X msg -26 100 symbol \$1/Serato2B_48kHz.wav;
#X msg 294 100 symbol \$1/Serato2A_48kHz.wav;
#X msg -5 247 index \$1;
#X obj -26 290 sfread2~ 2;
#X floatatom 755 297 5 0 0 0 - - -, f 5;
#X obj 736 415 *~;
#X obj 790 414 *~;
#X obj 808 385 == 1;
#X floatatom 854 275 5 0 0 0 - - -, f 5;
#X obj 736 357 readanysf~ 2 100 512;
#X msg 854 294 speed \$1;
#X msg 755 319 time_seek \$1;
#X obj 873 381 route ready;
#X obj 873 403 sel 1;
#X msg 873 425 play \, speed 0.5;
#X obj 94 428 print;
#X obj 294 290 sfread2~ 2;
#X msg -26 153 open \$1 \, interp 1 \, index 0 \, loop 1 \, bang;
#X msg 294 123 open \$1 \, interp 1 \, index 0 \, loop 1 \, bang;
#X msg 313 252 index \$1;
#N canvas 1 80 450 300 getSR 0;
#X msg 162 139 \$1;
#X msg 162 95 read \$1;
#X obj 162 117 iemlib/soundfile_info;
#X obj 144 164 *;
#X obj 162 74 inlet;
#X obj 102 74 inlet;
#X obj 144 186 outlet;
#X connect 0 0 3 1;
#X connect 1 0 2 0;
#X connect 2 0 0 0;
#X connect 3 0 6 0;
#X connect 4 0 1 0;
#X connect 5 0 3 0;
#X restore -5 218 pd getSR;
#N canvas 1 80 450 300 getSR 0;
#X msg 162 139 \$1;
#X msg 162 95 read \$1;
#X obj 162 117 iemlib/soundfile_info;
#X obj 144 164 *;
#X obj 162 74 inlet;
#X obj 102 74 inlet;
#X obj 144 186 outlet;
#X connect 0 0 3 1;
#X connect 1 0 2 0;
#X connect 2 0 0 0;
#X connect 3 0 6 0;
#X connect 4 0 1 0;
#X connect 5 0 3 0;
#X restore 313 218 pd getSR;
#X obj 412 149 loadbang;
#X msg 412 171 0.5;
#X connect 0 0 25 0;
#X connect 1 0 0 0;
#X connect 2 0 45 0;
#X connect 3 0 7 0;
#X connect 3 1 8 0;
#X connect 4 0 6 0;
#X connect 5 0 9 0;
#X connect 7 0 6 0;
#X connect 8 0 9 0;
#X connect 10 0 11 0;
#X connect 11 0 13 0;
#X connect 11 0 21 0;
#X connect 11 1 14 0;
#X connect 12 0 0 0;
#X connect 13 0 5 1;
#X connect 13 0 4 1;
#X connect 14 0 8 1;
#X connect 14 0 7 1;
#X connect 15 0 24 0;
#X connect 16 0 15 0;
#X connect 17 0 44 0;
#X connect 18 0 6 0;
#X connect 19 0 9 0;
#X connect 20 0 15 0;
#X connect 21 0 19 1;
#X connect 21 0 18 1;
#X connect 22 0 40 1;
#X connect 23 0 27 1;
#X connect 24 0 41 0;
#X connect 24 0 44 1;
#X connect 25 0 42 0;
#X connect 25 0 45 1;
#X connect 26 0 27 0;
#X connect 27 0 18 0;
#X connect 27 1 19 0;
#X connect 27 2 39 0;
#X connect 28 0 35 0;
#X connect 31 0 30 1;
#X connect 31 0 29 1;
#X connect 32 0 34 0;
#X connect 33 0 29 0;
#X connect 33 1 30 0;
#X connect 33 2 36 0;
#X connect 34 0 33 0;
#X connect 35 0 33 0;
#X connect 36 0 37 0;
#X connect 37 0 38 0;
#X connect 38 0 33 0;
#X connect 40 0 4 0;
#X connect 40 1 5 0;
#X connect 41 0 27 0;
#X connect 42 0 40 0;
#X connect 43 0 40 0;
#X connect 44 0 26 0;
#X connect 45 0 43 0;
#X connect 46 0 47 0;
#X connect 47 0 22 0;
#X connect 47 0 23 0;
#X restore 163 189 pd source;
#X obj 163 110 vradio 15 1 0 3 empty empty empty 0 -8 0 10 -262144
-1 -1 1;
#X text 182 109 live input;
#X obj 29 393 vsl 15 128 0 127 0 0 empty empty empty 0 -9 0 10 -262144
-1 -1 5577 1;
#X obj 69 393 vsl 15 128 0 127 0 0 empty empty empty 0 -9 0 10 -262144
-1 -1 5571 1;
#X text 182 126 serato face A;
#X text 182 141 serato face B;
#N canvas 570 108 767 625 analysis 0;
#X floatatom 253 381 5 0 0 0 speed - -, f 5;
#X obj 389 293 bng 15 250 50 0 empty empty empty 17 7 0 10 -262144
-1 -1;
#X floatatom 372 478 5 0 0 0 position - -, f 5;
#X msg 288 294 smoothing \$1;
#X floatatom 289 273 5 0 0 0 - - -, f 5;
#X obj 163 412 route float;
#N canvas 410 279 450 300 speedlimit 0;
#X obj 159 75 inlet;
#X obj 159 141 t a b b;
#X msg 210 186 0;
#X obj 286 248 t f;
#X obj 182 166 delay 10;
#X obj 159 257 outlet;
#X obj 159 119 spigot 1;
#X msg 182 206 1;
#X connect 0 0 6 0;
#X connect 1 0 5 0;
#X connect 1 1 4 0;
#X connect 1 2 2 0;
#X connect 2 0 3 0;
#X connect 3 0 6 1;
#X connect 4 0 7 0;
#X connect 6 0 1 0;
#X connect 7 0 3 0;
#X restore 163 438 pd speedlimit;
#X obj 293 511 *;
#X floatatom 168 492 5 0 0 0 - - -, f 5;
#X obj 163 334 vinylcontrol~ serato_2a 10, f 27;
#X obj 447 476 puremapping/stream_check;
#X obj 447 550 tgl 15 0 empty empty empty 17 7 0 10 -262144 -1 -1 0
1;
#X obj 336 96 tgl 15 0 empty empty empty 17 7 0 10 -262144 -1 -1 0
1;
#X obj 336 116 sel 0 1;
#X msg 336 143 vinyl serato_2a;
#X msg 359 172 vinyl serato_2b;
#X obj 336 68 metro 1000;
#X obj 336 44 == 0;
#X obj 162 228 inlet~;
#X obj 222 228 inlet~;
#X obj 293 558 outlet;
#X obj 372 558 outlet;
#X obj 463 504 loadbang;
#X msg 463 526 0;
#X obj 253 358 * 2;
#X obj 361 374 moses 0;
#X obj 361 396 t b;
#X obj 548 307 int;
#X obj 548 329 change;
#X floatatom 548 351 5 0 0 0 - - -, f 5;
#X obj 548 370 t b b;
#X obj 548 393 realtime;
#X floatatom 548 415 5 0 0 0 - - -, f 5;
#X obj 386 32 tgl 15 0 empty empty empty 17 7 0 10 -262144 -1 -1 0
1;
#X obj 372 455 * 1216;
#X connect 0 0 7 1;
#X connect 1 0 9 2;
#X connect 2 0 21 0;
#X connect 3 0 9 2;
#X connect 4 0 3 0;
#X connect 5 0 6 0;
#X connect 6 0 7 0;
#X connect 6 0 8 0;
#X connect 7 0 20 0;
#X connect 9 0 5 0;
#X connect 9 1 24 0;
#X connect 9 2 25 0;
#X connect 10 0 11 0;
#X connect 12 0 13 0;
#X connect 13 0 14 0;
#X connect 13 1 15 0;
#X connect 14 0 9 2;
#X connect 15 0 9 2;
#X connect 16 0 12 0;
#X connect 17 0 16 0;
#X connect 18 0 9 0;
#X connect 19 0 9 1;
#X connect 22 0 23 0;
#X connect 23 0 11 0;
#X connect 24 0 0 0;
#X connect 25 0 26 0;
#X connect 25 1 10 0;
#X connect 25 1 34 0;
#X connect 26 0 9 2;
#X connect 27 0 28 0;
#X connect 28 0 29 0;
#X connect 29 0 30 0;
#X connect 30 0 31 0;
#X connect 30 1 31 1;
#X connect 31 0 32 0;
#X connect 33 0 16 0;
#X connect 34 0 2 0;
#X connect 34 0 27 0;
#X restore 164 260 pd analysis;
#X floatatom 282 296 5 0 0 0 - - -, f 5;
#X floatatom 124 301 5 0 0 0 - - -, f 5;
#X connect 0 0 1 0;
#X connect 2 0 3 0;
#X connect 2 0 11 0;
#X connect 4 0 5 0;
#X connect 4 0 12 0;
#X connect 8 0 2 0;
#X connect 8 0 15 0;
#X connect 8 1 4 0;
#X connect 8 1 15 1;
#X connect 9 0 8 0;
#X connect 15 0 7 0;
#X connect 15 0 17 0;
#X connect 15 0 6 0;
#X connect 15 1 7 1;
#X connect 15 1 16 0;
#X connect 15 1 6 1;
