#N canvas 906 211 355 755 10;
#X obj 61 652 loadbang;
#X msg 61 674 \; pd dsp 1;
#X obj 28 299 env~;
#X floatatom 28 341 5 0 0 0 - - -, f 5;
#X obj 68 299 env~;
#X floatatom 68 341 5 0 0 0 - - -, f 5;
#N canvas 0 132 541 507 sendOSC 0;
#X obj 221 170 osc/packOSC;
#X obj 221 299 net/udpsend;
#X msg 261 269 disconnect;
#X obj 221 192 spigot;
#X obj 253 223 loadbang;
#X msg 253 244 connect 127.0.0.1 6667;
#X obj 254 339 == 0;
#X obj 254 361 metro 1000;
#X obj 104 384 print netsend_output;
#X msg 221 116 send /speed \$1;
#X msg 338 116 send /position \$1;
#X obj 221 331 tgl 15 0 empty empty empty 17 7 0 10 -262144 -1 -1 1
1;
#X obj 338 91 inlet;
#X obj 221 91 inlet;
#X connect 0 0 3 0;
#X connect 1 0 3 1;
#X connect 1 0 8 0;
#X connect 1 0 11 0;
#X connect 1 0 6 0;
#X connect 2 0 1 0;
#X connect 3 0 1 0;
#X connect 4 0 5 0;
#X connect 5 0 1 0;
#X connect 6 0 7 0;
#X connect 7 0 5 0;
#X connect 9 0 0 0;
#X connect 10 0 0 0;
#X connect 12 0 10 0;
#X connect 13 0 9 0;
#X restore 252 359 pd sendOSC;
#N canvas 676 625 614 397 readsf~ 0;
#X obj 305 73 inlet;
#X obj 425 3 inlet;
#X obj 164 153 ggee/getdir;
#X obj 89 128 bng 15 250 50 0 empty empty empty 17 7 0 10 -262144 -1
-1;
#X msg 305 95 \$1 10;
#X obj 305 117 line;
#X obj 164 130 loadbang;
#X floatatom 424 296 5 0 0 0 - - -, f 5;
#X obj 163 310 dac~ 1 2;
#X obj 96 217 bng 15 250 50 0 empty empty empty 17 7 0 10 -262144 -1
-1;
#X msg 60 220 0;
#X obj 69 282 env~;
#X floatatom 69 304 5 0 0 0 - - -, f 5;
#X obj 386 63 -, f 2;
#X msg 58 182 getindex;
#X msg 305 138 speed \$1;
#X msg 408 158 time_seek \$1;
#X floatatom 364 306 5 0 0 0 - - -, f 5;
#X msg 164 181 symbol \$1/../bbb_sunflower_1080p_60fps_normal-44100.wav
;
#X obj 164 253 readanysf~ 2 100 512;
#X msg 164 223 open \$1;
#X obj 301 302 sel 1;
#X msg 231 223 tick 100 \, play;
#X obj 301 279 route ready float;
#X floatatom 386 85 5 0 0 0 - - -, f 5;
#X obj 425 25 t f f;
#X obj 457 85 abs;
#X obj 457 131 sel 1;
#X obj 411 129 f;
#X obj 457 109 > 5;
#X connect 0 0 4 0;
#X connect 1 0 25 0;
#X connect 2 0 18 0;
#X connect 3 0 2 0;
#X connect 4 0 5 0;
#X connect 5 0 15 0;
#X connect 6 0 2 0;
#X connect 9 0 19 0;
#X connect 10 0 19 0;
#X connect 11 0 12 0;
#X connect 13 0 24 0;
#X connect 13 0 26 0;
#X connect 14 0 19 0;
#X connect 15 0 19 0;
#X connect 16 0 19 0;
#X connect 18 0 20 0;
#X connect 19 0 11 0;
#X connect 19 0 8 0;
#X connect 19 1 8 1;
#X connect 19 2 23 0;
#X connect 20 0 19 0;
#X connect 21 0 22 0;
#X connect 22 0 19 0;
#X connect 23 0 21 0;
#X connect 23 1 17 0;
#X connect 23 1 13 0;
#X connect 25 0 13 1;
#X connect 25 1 28 1;
#X connect 26 0 29 0;
#X connect 27 0 28 0;
#X connect 28 0 16 0;
#X connect 29 0 27 0;
#X restore 164 359 pd readsf~;
#N canvas 997 580 701 497 source 1;
#X obj 294 73 ggee/getdir;
#X obj 294 50 loadbang;
#X floatatom 313 230 5 0 0 0 - - -, f 5;
#X obj 475 271 adc~ 1 2;
#X obj 294 348 *~;
#X obj 348 347 *~;
#X obj 346 416 outlet~;
#X obj 474 348 *~ 1;
#X obj 528 347 *~ 1;
#X obj 406 416 outlet~;
#X obj 595 73 inlet;
#X obj 595 95 t f f;
#X obj 361 49 bng 15 250 50 0 empty empty empty 17 7 0 10 -262144 -1
-1;
#X msg 293 100 symbol \$1/Serato2A.wav;
#X obj 366 318 == 1;
#X obj 627 146 == 0;
#X obj 104 73 ggee/getdir;
#X obj 104 50 loadbang;
#X floatatom 125 227 5 0 0 0 - - -, f 5;
#X obj 104 348 *~;
#X obj 158 347 *~;
#X obj 171 49 bng 15 250 50 0 empty empty empty 17 7 0 10 -262144 -1
-1;
#X obj 176 318 == 2;
#X msg 103 100 symbol \$1/Serato2B.wav, f 24;
#X floatatom 412 208 5 0 0 0 - - -, f 5;
#X floatatom 229 208 5 0 0 0 - - -, f 5;
#X obj 294 290 readanysf~ 2 100 512;
#X obj 104 290 readanysf~ 2 100 512;
#X msg 229 227 speed \$1;
#X msg 125 247 time_seek \$1;
#X msg 412 227 speed \$1;
#X msg 313 252 time_seek \$1;
#X msg 294 123 open \$1;
#X msg 104 123 open \$1;
#X obj 505 414 route ready;
#X obj 505 436 sel 1;
#X obj 198 352 route ready;
#X obj 198 374 sel 1;
#X msg 198 396 play \, speed 0.5;
#X msg 505 458 play \, speed 0.5;
#X connect 0 0 13 0;
#X connect 1 0 0 0;
#X connect 2 0 31 0;
#X connect 3 0 7 0;
#X connect 3 1 8 0;
#X connect 4 0 6 0;
#X connect 5 0 9 0;
#X connect 7 0 6 0;
#X connect 8 0 9 0;
#X connect 10 0 11 0;
#X connect 11 0 14 0;
#X connect 11 0 22 0;
#X connect 11 1 15 0;
#X connect 12 0 0 0;
#X connect 13 0 32 0;
#X connect 14 0 5 1;
#X connect 14 0 4 1;
#X connect 15 0 8 1;
#X connect 15 0 7 1;
#X connect 16 0 23 0;
#X connect 17 0 16 0;
#X connect 18 0 29 0;
#X connect 19 0 6 0;
#X connect 20 0 9 0;
#X connect 21 0 16 0;
#X connect 22 0 20 1;
#X connect 22 0 19 1;
#X connect 23 0 33 0;
#X connect 24 0 30 0;
#X connect 25 0 28 0;
#X connect 26 0 4 0;
#X connect 26 1 5 0;
#X connect 26 2 34 0;
#X connect 27 0 19 0;
#X connect 27 1 20 0;
#X connect 27 2 36 0;
#X connect 28 0 27 0;
#X connect 29 0 27 0;
#X connect 30 0 26 0;
#X connect 31 0 26 0;
#X connect 32 0 26 0;
#X connect 33 0 27 0;
#X connect 34 0 35 0;
#X connect 35 0 39 0;
#X connect 36 0 37 0;
#X connect 37 0 38 0;
#X connect 38 0 27 0;
#X connect 39 0 26 0;
#X restore 163 189 pd source;
#X obj 163 110 vradio 15 1 0 3 empty empty empty 0 -8 0 10 -262144
-1 -1 1;
#X text 182 109 live input;
#X obj 29 393 vsl 15 128 0 127 0 0 empty empty empty 0 -9 0 10 -262144
-1 -1 7793 1;
#X obj 69 393 vsl 15 128 0 127 0 0 empty empty empty 0 -9 0 10 -262144
-1 -1 7766 1;
#X text 182 126 serato face A;
#X text 182 141 serato face B;
#N canvas 86 249 767 625 analysis 1;
#X floatatom 253 381 5 0 0 0 speed - -, f 5;
#X obj 389 293 bng 15 250 50 0 empty empty empty 17 7 0 10 -262144
-1 -1;
#X floatatom 372 448 5 0 0 0 position - -, f 5;
#X msg 288 294 smoothing \$1;
#X floatatom 289 273 5 0 0 0 - - -, f 5;
#X obj 163 412 route float;
#N canvas 410 279 450 300 speedlimit 0;
#X obj 159 75 inlet;
#X obj 159 141 t a b b;
#X msg 210 186 0;
#X obj 286 248 t f;
#X obj 182 166 delay 10;
#X obj 159 257 outlet;
#X obj 159 119 spigot 1;
#X msg 182 206 1;
#X connect 0 0 6 0;
#X connect 1 0 5 0;
#X connect 1 1 4 0;
#X connect 1 2 2 0;
#X connect 2 0 3 0;
#X connect 3 0 6 1;
#X connect 4 0 7 0;
#X connect 6 0 1 0;
#X connect 7 0 3 0;
#X restore 163 438 pd speedlimit;
#X obj 293 511 *;
#X floatatom 168 492 5 0 0 0 - - -, f 5;
#X obj 163 334 vinylcontrol~ serato_2a 10, f 27;
#X obj 447 476 puremapping/stream_check;
#X obj 447 550 tgl 15 0 empty empty empty 17 7 0 10 -262144 -1 -1 1
1;
#X obj 336 96 tgl 15 0 empty empty empty 17 7 0 10 -262144 -1 -1 0
1;
#X obj 336 116 sel 0 1;
#X msg 336 143 vinyl serato_2a;
#X msg 359 172 vinyl serato_2b;
#X obj 336 68 metro 1000;
#X obj 336 44 == 0;
#X obj 162 228 inlet~;
#X obj 222 228 inlet~;
#X obj 293 558 outlet;
#X obj 372 558 outlet;
#X obj 463 504 loadbang;
#X msg 463 526 0;
#X obj 253 358 * 2;
#X obj 361 374 moses 0;
#X obj 361 396 t b;
#X obj 548 307 int;
#X obj 548 329 change;
#X floatatom 548 351 5 0 0 0 - - -, f 5;
#X obj 548 370 t b b;
#X obj 548 393 realtime;
#X floatatom 548 415 5 0 0 0 - - -, f 5;
#X obj 548 285 * 1367;
#X obj 372 426 * 1367;
#X connect 0 0 7 1;
#X connect 1 0 9 2;
#X connect 2 0 10 0;
#X connect 2 0 21 0;
#X connect 3 0 9 2;
#X connect 4 0 3 0;
#X connect 5 0 6 0;
#X connect 6 0 7 0;
#X connect 6 0 8 0;
#X connect 7 0 20 0;
#X connect 9 0 5 0;
#X connect 9 1 24 0;
#X connect 9 2 25 0;
#X connect 10 0 11 0;
#X connect 11 0 17 0;
#X connect 12 0 13 0;
#X connect 13 0 14 0;
#X connect 13 1 15 0;
#X connect 14 0 9 2;
#X connect 15 0 9 2;
#X connect 16 0 12 0;
#X connect 17 0 16 0;
#X connect 18 0 9 0;
#X connect 19 0 9 1;
#X connect 22 0 23 0;
#X connect 23 0 11 0;
#X connect 24 0 0 0;
#X connect 25 0 26 0;
#X connect 25 1 33 0;
#X connect 25 1 34 0;
#X connect 26 0 9 2;
#X connect 27 0 28 0;
#X connect 28 0 29 0;
#X connect 29 0 30 0;
#X connect 30 0 31 0;
#X connect 30 1 31 1;
#X connect 31 0 32 0;
#X connect 33 0 27 0;
#X connect 34 0 2 0;
#X restore 164 260 pd analysis;
#X floatatom 282 296 5 0 0 0 - - -, f 5;
#X floatatom 124 301 5 0 0 0 - - -, f 5;
#X connect 0 0 1 0;
#X connect 2 0 3 0;
#X connect 2 0 11 0;
#X connect 4 0 5 0;
#X connect 4 0 12 0;
#X connect 8 0 2 0;
#X connect 8 0 15 0;
#X connect 8 1 4 0;
#X connect 8 1 15 1;
#X connect 9 0 8 0;
#X connect 15 0 7 0;
#X connect 15 0 17 0;
#X connect 15 0 6 0;
#X connect 15 1 7 1;
#X connect 15 1 16 0;
#X connect 15 1 6 1;
