#N canvas 610 107 520 662 10;
#X declare -path abs -path bin;
#X obj 61 652 loadbang;
#X msg 61 674 \; pd dsp 1;
#X obj 28 299 env~;
#X floatatom 28 341 5 0 0 0 - - -, f 5;
#X obj 68 299 env~;
#X floatatom 68 341 5 0 0 0 - - -, f 5;
#N canvas 199 236 642 507 sendOSC 0;
#X obj 221 170 osc/packOSC;
#X obj 221 299 net/udpsend;
#X msg 261 269 disconnect;
#X obj 221 192 spigot;
#X obj 253 223 loadbang;
#X msg 253 244 connect 127.0.0.1 6667;
#X msg 221 116 send /speed \$1;
#X msg 338 116 send /position \$1;
#X obj 221 361 tgl 15 0 empty empty empty 17 7 0 10 -262144 -1 -1 1
1;
#X obj 338 91 inlet;
#X obj 221 91 inlet;
#X obj 423 177 osc/unpackOSC;
#X obj 423 199 osc/routeOSC /reconnect;
#X obj 423 221 t b b;
#X obj 423 157 net/udpreceive 6666;
#X obj 274 426 delay 1000;
#X obj 85 98 closebang;
#X msg 85 120 send /quit;
#X obj 254 369 sel 0 1;
#X msg 278 399 stop;
#X msg 75 230 send /ping;
#X obj 75 206 metro 1000;
#X obj 221 321 t f f f;
#X obj 63 23 inlet;
#X msg 63 45 /open \$1 \, /speed 0;
#X connect 0 0 3 0;
#X connect 1 0 22 0;
#X connect 2 0 1 0;
#X connect 3 0 1 0;
#X connect 4 0 5 0;
#X connect 5 0 1 0;
#X connect 6 0 0 0;
#X connect 7 0 0 0;
#X connect 9 0 7 0;
#X connect 10 0 6 0;
#X connect 11 0 12 0;
#X connect 12 0 13 0;
#X connect 13 0 5 0;
#X connect 13 1 2 0;
#X connect 14 0 11 0;
#X connect 15 0 5 0;
#X connect 16 0 17 0;
#X connect 17 0 0 0;
#X connect 18 0 15 0;
#X connect 18 1 19 0;
#X connect 19 0 15 0;
#X connect 20 0 0 0;
#X connect 21 0 20 0;
#X connect 22 0 21 0;
#X connect 22 0 8 0;
#X connect 22 1 18 0;
#X connect 22 2 3 1;
#X connect 23 0 24 0;
#X connect 24 0 0 0;
#X restore 268 473 pd sendOSC;
#N canvas 167 143 614 599 readsf~ 0;
#X obj 355 66 inlet;
#X obj 475 23 inlet;
#X obj 261 87 ggee/getdir;
#X obj 355 137 line;
#X obj 228 29 loadbang;
#X obj 173 330 dac~ 1 2;
#X obj 106 237 bng 15 250 50 0 empty empty empty 17 7 0 10 -262144
-1 -1;
#X msg 70 240 0;
#X obj 79 302 env~;
#X floatatom 79 324 5 0 0 0 - - -, f 5;
#X obj 174 274 sfread2~ 2;
#N canvas 0 136 450 435 getSR 0;
#X msg 162 109 \$1;
#X msg 162 65 read \$1;
#X obj 162 87 iemlib/soundfile_info;
#X obj 144 164 *;
#X obj 162 44 inlet;
#X obj 102 74 inlet;
#X obj 105 342 outlet;
#X obj 173 164 outlet;
#X msg 266 145 \$3;
#X obj 144 229 <;
#X obj 105 261 spigot;
#X obj 105 206 t f f;
#X msg 105 283 index \$1;
#X obj 210 276 sel 1;
#X connect 0 0 3 1;
#X connect 0 0 7 0;
#X connect 1 0 2 0;
#X connect 2 0 0 0;
#X connect 2 0 8 0;
#X connect 3 0 11 0;
#X connect 4 0 1 0;
#X connect 5 0 3 0;
#X connect 8 0 9 1;
#X connect 9 0 10 1;
#X connect 9 0 13 0;
#X connect 10 0 12 0;
#X connect 11 0 10 0;
#X connect 11 1 9 0;
#X connect 12 0 6 0;
#X connect 13 1 6 0;
#X restore 437 235 pd getSR;
#X msg 174 243 open \$1 \, interp 1 \, loop 0 \, bang;
#X floatatom 355 91 5 0 0 0 - - -, f 5;
#X msg 68 201 index;
#X obj 276 340 route index;
#X obj 404 385 /;
#X floatatom 404 407 5 0 0 0 - - -, f 5;
#X obj 68 172 metro 100;
#X obj 68 146 tgl 15 0 empty empty empty 17 7 0 10 -262144 -1 -1 1
1;
#X msg 355 115 \$1 100;
#X obj 174 151 pack s s;
#X obj 229 59 t b b;
#X obj 275 58 bng 15 250 50 0 empty empty empty 17 7 0 10 -262144 -1
-1;
#X msg 174 179 symbol \$2/../audio/\$1;
#X obj 22 16 inlet;
#X obj 68 123 loadbang;
#X msg 156 88 PARTIE1A.wav;
#X msg 11 60 big_buck_bunny_720p_48kHz.wav;
#X obj 404 427 outlet;
#X obj 437 275 print;
#X msg 383 194 interp 1;
#X connect 0 0 13 0;
#X connect 1 0 11 0;
#X connect 2 0 21 1;
#X connect 3 0 10 1;
#X connect 4 0 22 0;
#X connect 6 0 10 0;
#X connect 7 0 10 0;
#X connect 8 0 9 0;
#X connect 10 0 8 0;
#X connect 10 0 5 0;
#X connect 10 1 5 1;
#X connect 10 2 15 0;
#X connect 11 0 10 0;
#X connect 11 0 30 0;
#X connect 11 1 16 1;
#X connect 12 0 10 0;
#X connect 13 0 20 0;
#X connect 14 0 10 0;
#X connect 15 0 16 0;
#X connect 16 0 17 0;
#X connect 17 0 29 0;
#X connect 18 0 14 0;
#X connect 19 0 18 0;
#X connect 20 0 3 0;
#X connect 21 0 24 0;
#X connect 22 0 27 0;
#X connect 22 1 2 0;
#X connect 23 0 2 0;
#X connect 24 0 12 0;
#X connect 24 0 11 1;
#X connect 25 0 21 0;
#X connect 26 0 19 0;
#X connect 27 0 21 0;
#X connect 28 0 21 0;
#X connect 31 0 10 0;
#X restore 134 419 pd readsf~;
#N canvas 1 137 1364 605 source 0;
#X obj 294 73 ggee/getdir;
#X obj 294 50 loadbang;
#X floatatom 313 194 5 0 0 0 - - -, f 5;
#X obj 475 271 adc~ 1 2;
#X obj 294 348 *~;
#X obj 348 347 *~;
#X obj 346 416 outlet~;
#X obj 474 348 *~ 1;
#X obj 528 347 *~ 1;
#X obj 406 416 outlet~;
#X obj 605 73 inlet;
#X obj 605 95 t f f;
#X obj 361 49 bng 15 250 50 0 empty empty empty 17 7 0 10 -262144 -1
-1;
#X obj 388 318 == 1;
#X obj 637 146 == 0;
#X obj -26 73 ggee/getdir;
#X obj -26 50 loadbang;
#X floatatom -5 194 5 0 0 0 - - -, f 5;
#X obj -26 348 *~;
#X obj 28 347 *~;
#X obj 41 49 bng 15 250 50 0 empty empty empty 17 7 0 10 -262144 -1
-1;
#X obj 46 318 == 2;
#X floatatom 412 208 5 0 0 0 - - -, f 5;
#X floatatom 73 229 5 0 0 0 - - -, f 5;
#X msg -5 247 index \$1;
#X obj -26 290 sfread2~ 2;
#X floatatom 755 297 5 0 0 0 - - -, f 5;
#X obj 736 415 *~;
#X obj 790 414 *~;
#X obj 808 385 == 1;
#X floatatom 854 275 5 0 0 0 - - -, f 5;
#X obj 736 357 readanysf~ 2 100 512;
#X msg 854 294 speed \$1;
#X msg 755 319 time_seek \$1;
#X obj 873 381 route ready;
#X obj 873 403 sel 1;
#X msg 873 425 play \, speed 0.5;
#X obj 294 290 sfread2~ 2;
#X msg -26 153 open \$1 \, interp 1 \, index 0 \, loop 1 \, bang;
#X msg 294 123 open \$1 \, interp 1 \, index 0 \, loop 1 \, bang;
#X msg 313 252 index \$1;
#N canvas 1 80 450 300 getSR 0;
#X msg 162 139 \$1;
#X msg 162 95 read \$1;
#X obj 162 117 iemlib/soundfile_info;
#X obj 144 164 *;
#X obj 162 74 inlet;
#X obj 102 74 inlet;
#X obj 144 186 outlet;
#X connect 0 0 3 1;
#X connect 1 0 2 0;
#X connect 2 0 0 0;
#X connect 3 0 6 0;
#X connect 4 0 1 0;
#X connect 5 0 3 0;
#X restore -5 218 pd getSR;
#N canvas 1 80 450 300 getSR 0;
#X msg 162 139 \$1;
#X msg 162 95 read \$1;
#X obj 162 117 iemlib/soundfile_info;
#X obj 144 164 *;
#X obj 162 74 inlet;
#X obj 102 74 inlet;
#X obj 144 186 outlet;
#X connect 0 0 3 1;
#X connect 1 0 2 0;
#X connect 2 0 0 0;
#X connect 3 0 6 0;
#X connect 4 0 1 0;
#X connect 5 0 3 0;
#X restore 313 218 pd getSR;
#X obj 412 149 loadbang;
#X msg 412 171 0.5;
#X msg 293 100 symbol \$1/Serato2A.wav;
#X msg -26 100 symbol \$1/Serato2B.wav;
#X connect 0 0 45 0;
#X connect 1 0 0 0;
#X connect 2 0 42 0;
#X connect 3 0 7 0;
#X connect 3 1 8 0;
#X connect 4 0 6 0;
#X connect 5 0 9 0;
#X connect 7 0 6 0;
#X connect 8 0 9 0;
#X connect 10 0 11 0;
#X connect 11 0 13 0;
#X connect 11 0 21 0;
#X connect 11 1 14 0;
#X connect 12 0 0 0;
#X connect 13 0 5 1;
#X connect 13 0 4 1;
#X connect 14 0 8 1;
#X connect 14 0 7 1;
#X connect 15 0 46 0;
#X connect 16 0 15 0;
#X connect 17 0 41 0;
#X connect 18 0 6 0;
#X connect 19 0 9 0;
#X connect 20 0 15 0;
#X connect 21 0 19 1;
#X connect 21 0 18 1;
#X connect 22 0 37 1;
#X connect 23 0 25 1;
#X connect 24 0 25 0;
#X connect 25 0 18 0;
#X connect 25 1 19 0;
#X connect 26 0 33 0;
#X connect 29 0 28 1;
#X connect 29 0 27 1;
#X connect 30 0 32 0;
#X connect 31 0 27 0;
#X connect 31 1 28 0;
#X connect 31 2 34 0;
#X connect 32 0 31 0;
#X connect 33 0 31 0;
#X connect 34 0 35 0;
#X connect 35 0 36 0;
#X connect 36 0 31 0;
#X connect 37 0 4 0;
#X connect 37 1 5 0;
#X connect 38 0 25 0;
#X connect 39 0 37 0;
#X connect 40 0 37 0;
#X connect 41 0 24 0;
#X connect 42 0 40 0;
#X connect 43 0 44 0;
#X connect 44 0 22 0;
#X connect 44 0 23 0;
#X connect 45 0 39 0;
#X connect 45 0 42 1;
#X connect 46 0 38 0;
#X connect 46 0 41 1;
#X restore 163 189 pd source;
#X obj 163 110 vradio 15 1 0 3 empty empty empty 0 -8 0 10 -262144
-1 -1 0;
#X text 182 109 live input;
#X obj 29 393 vsl 15 128 0 127 0 0 empty empty empty 0 -9 0 10 -262144
-1 -1 877 1;
#X obj 69 393 vsl 15 128 0 127 0 0 empty empty empty 0 -9 0 10 -262144
-1 -1 859 1;
#X text 182 126 serato face A;
#X text 182 141 serato face B;
#N canvas 295 84 767 662 analysis 1;
#X floatatom 253 411 5 0 0 0 speed - -, f 5;
#X obj 389 293 bng 15 250 50 0 empty empty empty 17 7 0 10 -262144
-1 -1;
#X floatatom 372 458 5 0 0 0 position - -, f 5;
#X msg 288 294 smoothing \$1;
#X floatatom 289 273 5 0 0 0 - - -, f 5;
#X obj 163 442 route float;
#N canvas 410 279 450 300 speedlimit 0;
#X obj 159 75 inlet;
#X obj 159 141 t a b b;
#X msg 210 186 0;
#X obj 286 248 t f;
#X obj 182 166 delay 10;
#X obj 159 257 outlet;
#X obj 159 119 spigot 1;
#X msg 182 206 1;
#X connect 0 0 6 0;
#X connect 1 0 5 0;
#X connect 1 1 4 0;
#X connect 1 2 2 0;
#X connect 2 0 3 0;
#X connect 3 0 6 1;
#X connect 4 0 7 0;
#X connect 6 0 1 0;
#X connect 7 0 3 0;
#X restore 163 468 pd speedlimit;
#X obj 293 511 *;
#X floatatom 168 522 5 0 0 0 - - -, f 5;
#X obj 447 476 puremapping/stream_check;
#X obj 447 550 tgl 15 0 empty empty empty 17 7 0 10 -262144 -1 -1 0
1;
#X obj 336 96 tgl 15 0 empty empty empty 17 7 0 10 -262144 -1 -1 0
1;
#X obj 336 116 sel 0 1;
#X msg 336 143 vinyl serato_2a;
#X msg 359 172 vinyl serato_2b;
#X obj 336 68 metro 1000;
#X obj 336 44 == 0;
#X obj 162 228 inlet~;
#X obj 222 228 inlet~;
#X obj 293 558 outlet;
#X obj 354 763 outlet;
#X obj 463 504 loadbang;
#X msg 463 526 0;
#X obj 253 358 * 2;
#X obj 380 337 moses 0;
#X obj 380 359 t b;
#X obj 544 181 int;
#X obj 544 203 change;
#X obj 544 224 t b b;
#X obj 545 245 realtime;
#X obj 386 32 tgl 15 0 empty empty empty 17 7 0 10 -262144 -1 -1 0
1;
#X obj 372 435 * 857;
#X obj 440 273 inlet;
#X obj 588 437 outlet;
#X floatatom 548 436 5 0 0 0 - - -, f 5;
#X obj 440 296 t f b, f 6;
#X obj 374 207 inlet;
#X obj 253 385 puremapping/iir 15;
#X obj 544 161 * 10;
#X obj 546 265 * 10;
#X obj 163 333 vinylcontrol~ serato_2a 10, f 27;
#X obj 549 414 puremapping/iir 100;
#X msg 473 341 reset \$1;
#X obj 472 319 f;
#X floatatom 482 436 5 0 0 0 - - -, f 5;
#X floatatom 563 307 5 0 0 0 - - -, f 5;
#X obj 393 559 -;
#X floatatom 393 581 5 0 0 0 - - -, f 5;
#X obj 433 630 max;
#X obj 433 652 f;
#X floatatom 433 674 5 0 0 0 - - -, f 5;
#X obj 393 599 abs;
#X obj 393 698 > 10;
#X msg 451 603 0;
#X obj 372 511 t f f f;
#X obj 354 724 spigot;
#X connect 0 0 7 1;
#X connect 1 0 40 2;
#X connect 2 0 54 0;
#X connect 3 0 40 2;
#X connect 4 0 3 0;
#X connect 5 0 6 0;
#X connect 6 0 7 0;
#X connect 6 0 8 0;
#X connect 7 0 19 0;
#X connect 9 0 10 0;
#X connect 11 0 12 0;
#X connect 12 0 13 0;
#X connect 12 1 14 0;
#X connect 13 0 40 2;
#X connect 14 0 40 2;
#X connect 15 0 11 0;
#X connect 16 0 15 0;
#X connect 17 0 40 0;
#X connect 18 0 40 1;
#X connect 21 0 22 0;
#X connect 22 0 10 0;
#X connect 23 0 37 0;
#X connect 24 0 25 0;
#X connect 24 1 31 0;
#X connect 24 1 9 0;
#X connect 24 1 44 0;
#X connect 25 0 40 2;
#X connect 26 0 27 0;
#X connect 27 0 28 0;
#X connect 28 0 29 0;
#X connect 28 1 29 1;
#X connect 29 0 39 0;
#X connect 30 0 15 0;
#X connect 31 0 2 0;
#X connect 31 0 38 0;
#X connect 32 0 35 0;
#X connect 35 0 31 1;
#X connect 35 1 43 0;
#X connect 36 0 40 2;
#X connect 37 0 0 0;
#X connect 38 0 26 0;
#X connect 39 0 41 0;
#X connect 39 0 43 1;
#X connect 39 0 45 0;
#X connect 40 0 5 0;
#X connect 40 1 23 0;
#X connect 40 2 24 0;
#X connect 41 0 34 0;
#X connect 41 0 33 0;
#X connect 42 0 41 0;
#X connect 43 0 42 0;
#X connect 46 0 47 0;
#X connect 47 0 51 0;
#X connect 48 0 49 0;
#X connect 49 0 48 1;
#X connect 49 0 50 0;
#X connect 51 0 48 0;
#X connect 51 0 52 0;
#X connect 52 0 55 1;
#X connect 53 0 48 1;
#X connect 54 0 55 0;
#X connect 54 1 46 1;
#X connect 54 2 46 0;
#X connect 55 0 20 0;
#X restore 164 260 pd analysis;
#X floatatom 261 306 5 0 0 0 - - -, f 5;
#X floatatom 124 301 5 0 0 0 - - -, f 5;
#N canvas 28 309 1364 332 load 1;
#X obj 273 48 route 9 10 11 12 25 26 27 28;
#X obj 263 87 tgl 15 0 empty empty empty 17 7 0 10 -262144 -1 -1 0
1;
#X obj 293 87 tgl 15 0 empty empty empty 17 7 0 10 -262144 -1 -1 1
1;
#X obj 323 87 tgl 15 0 empty empty empty 17 7 0 10 -262144 -1 -1 0
1;
#X obj 353 87 tgl 15 0 empty empty empty 17 7 0 10 -262144 -1 -1 0
1;
#X obj 383 87 tgl 15 0 empty empty empty 17 7 0 10 -262144 -1 -1 0
1;
#X obj 413 87 tgl 15 0 empty empty empty 17 7 0 10 -262144 -1 -1 0
1;
#X obj 441 87 tgl 15 0 empty empty empty 17 7 0 10 -262144 -1 -1 0
1;
#X obj 473 87 tgl 15 0 empty empty empty 17 7 0 10 -262144 -1 -1 0
1;
#N canvas 0 93 692 503 notein 0;
#X obj 274 39 notein;
#X obj 300 268 noteout;
#X obj 412 220 t a;
#X obj 274 171 poly 1 1;
#X obj 274 116 stripnote;
#X obj 327 229 * 13;
#X obj 327 208 > 0;
#X obj 201 268 pack 0 0;
#X obj 201 290 outlet;
#X connect 0 0 4 0;
#X connect 0 1 4 1;
#X connect 0 2 2 0;
#X connect 2 0 1 2;
#X connect 3 1 1 0;
#X connect 3 1 7 0;
#X connect 3 2 6 0;
#X connect 4 0 3 0;
#X connect 4 1 3 1;
#X connect 5 0 1 1;
#X connect 6 0 5 0;
#X connect 6 0 7 1;
#X connect 7 0 8 0;
#X restore 273 27 pd notein;
#X obj 133 294 outlet son;
#X obj 133 142 sel 1;
#X msg 142 198 PARTIE1A.mov;
#X obj 243 142 sel 1;
#X obj 538 297 outlet image;
#X obj 538 267 symbol;
#X obj 350 143 sel 1;
#X msg 350 176 PARTIE1B.wav;
#X msg 359 199 PARTIE1B.mov;
#X obj 457 145 sel 1;
#X obj 567 145 sel 1;
#X obj 674 146 sel 1;
#X obj 1070 289 outlet vinyl;
#X obj 789 143 sel 1;
#X msg 789 176 PARTIE1B.wav;
#X msg 798 199 PARTIE1B.mov;
#X obj 896 144 sel 1;
#X msg 896 177 PARTIE1B.wav;
#X msg 905 200 PARTIE1B.mov;
#X msg 1070 225 vinyl serato_2a;
#X msg 1081 254 vinyl serato_2b;
#X msg 133 175 EntréePublic.wav;
#X msg 243 175 PARTIE1A.wav;
#X msg 252 198 PARTIE1A.mov;
#X msg 457 178 Entracte.wav;
#X msg 466 201 Entracte.mov;
#X msg 567 178 PARTIE2A.wav;
#X msg 576 201 PARTIE2A.mov;
#X msg 674 179 PARTIE2B.wav;
#X msg 683 202 PARTIE2B.mov;
#X connect 0 0 1 0;
#X connect 0 1 2 0;
#X connect 0 2 3 0;
#X connect 0 3 4 0;
#X connect 0 4 5 0;
#X connect 0 5 6 0;
#X connect 0 6 7 0;
#X connect 0 7 8 0;
#X connect 1 0 11 0;
#X connect 2 0 13 0;
#X connect 3 0 16 0;
#X connect 4 0 19 0;
#X connect 5 0 20 0;
#X connect 6 0 21 0;
#X connect 7 0 23 0;
#X connect 8 0 26 0;
#X connect 9 0 0 0;
#X connect 11 0 31 0;
#X connect 11 0 12 0;
#X connect 11 0 30 0;
#X connect 12 0 15 0;
#X connect 13 0 32 0;
#X connect 13 0 33 0;
#X connect 13 0 30 0;
#X connect 15 0 14 0;
#X connect 16 0 17 0;
#X connect 16 0 18 0;
#X connect 16 0 29 0;
#X connect 17 0 10 0;
#X connect 18 0 15 0;
#X connect 19 0 34 0;
#X connect 19 0 35 0;
#X connect 19 0 29 0;
#X connect 20 0 36 0;
#X connect 20 0 37 0;
#X connect 20 0 30 0;
#X connect 21 0 38 0;
#X connect 21 0 39 0;
#X connect 21 0 29 0;
#X connect 23 0 24 0;
#X connect 23 0 25 0;
#X connect 24 0 10 0;
#X connect 25 0 15 0;
#X connect 26 0 27 0;
#X connect 26 0 28 0;
#X connect 27 0 10 0;
#X connect 28 0 15 0;
#X connect 29 0 22 0;
#X connect 30 0 22 0;
#X connect 31 0 10 0;
#X connect 32 0 10 0;
#X connect 33 0 15 0;
#X connect 34 0 10 0;
#X connect 35 0 15 0;
#X connect 36 0 10 0;
#X connect 37 0 15 0;
#X connect 38 0 10 0;
#X connect 39 0 15 0;
#X restore 84 222 pd load;
#N canvas 354 191 859 300 init 0;
#X obj 131 85 declare -path abs -path bin;
#X obj 64 132 bng 15 250 50 0 empty empty empty 17 7 0 10 -262144 -1
-1;
#X obj 64 158 selectAudioDevice USB_AUDIO_CODEC_(hardware) HDA_Intel_PCH_(hardware)
, f 69;
#X obj 64 199 spigot;
#X obj 102 179 tgl 15 0 empty empty empty 17 7 0 10 -262144 -1 -1 0
1;
#X obj 64 221 print;
#X connect 1 0 2 0;
#X connect 2 0 3 0;
#X connect 3 0 5 0;
#X connect 4 0 3 1;
#X restore 64 58 pd init;
#X obj 260 226 nbx 5 14 -1e+37 1e+37 0 1 empty empty adjust 0 -8 0
10 -262144 -1 -1 1000 256;
#X floatatom 258 261 5 0 0 0 - - -, f 5;
#N canvas 1 99 659 300 readme 0;
#X text 143 53 Il faut que le nombre qui sort à droite de [pd analysis]
soit autour de 1000;
#X text 146 101 Si ce n'est pas le cas \, il faut mettre 1000 dans
la boite 'adjust' attendre 30 seconde que le nombre se stabilise puis
le recopier dans la boite 'adjust'.;
#X restore 328 258 pd readme;
#X connect 0 0 1 0;
#X connect 2 0 3 0;
#X connect 2 0 11 0;
#X connect 4 0 5 0;
#X connect 4 0 12 0;
#X connect 7 0 6 2;
#X connect 8 0 2 0;
#X connect 8 0 15 0;
#X connect 8 1 4 0;
#X connect 8 1 15 1;
#X connect 9 0 8 0;
#X connect 15 0 7 1;
#X connect 15 0 17 0;
#X connect 15 1 7 2;
#X connect 15 1 16 0;
#X connect 15 2 21 0;
#X connect 18 0 7 0;
#X connect 18 1 6 0;
#X connect 18 2 15 2;
#X connect 20 0 15 3;
