#N canvas 251 343 469 558 10;
#X declare -path abs -path bin;
#X obj 350 83 loadbang;
#X msg 350 105 \; pd dsp 1;
#X obj 28 299 env~;
#X floatatom 28 341 5 0 0 0 - - -, f 5;
#X obj 68 299 env~;
#X floatatom 68 341 5 0 0 0 - - -, f 5;
#N canvas 180 260 642 507 sendOSC 0;
#X obj 221 170 osc/packOSC;
#X msg 261 269 disconnect;
#X obj 221 192 spigot;
#X obj 253 223 loadbang;
#X msg 253 244 connect 127.0.0.1 6667;
#X msg 221 116 send /speed \$1;
#X msg 338 116 send /position \$1;
#X obj 221 361 tgl 15 0 empty empty empty 17 7 0 10 -262144 -1 -1 1
1;
#X obj 338 91 inlet;
#X obj 221 91 inlet;
#X obj 423 177 osc/unpackOSC;
#X obj 423 199 osc/routeOSC /reconnect;
#X obj 423 221 t b b;
#X obj 423 157 net/udpreceive 6666;
#X obj 274 426 delay 1000;
#X obj 85 98 closebang;
#X msg 85 120 send /quit;
#X obj 254 369 sel 0 1;
#X msg 278 399 stop;
#X msg 75 230 send /ping;
#X obj 75 206 metro 1000;
#X obj 221 321 t f f f;
#X obj 63 23 inlet;
#X obj 221 299 net/udpsend;
#X msg 63 45 /open \$1 \$2 \, /speed 0;
#X obj 33 375 print;
#X connect 0 0 2 0;
#X connect 1 0 23 0;
#X connect 2 0 23 0;
#X connect 3 0 4 0;
#X connect 4 0 23 0;
#X connect 5 0 0 0;
#X connect 6 0 0 0;
#X connect 8 0 6 0;
#X connect 9 0 5 0;
#X connect 10 0 11 0;
#X connect 11 0 12 0;
#X connect 12 0 4 0;
#X connect 12 1 1 0;
#X connect 13 0 10 0;
#X connect 14 0 4 0;
#X connect 15 0 16 0;
#X connect 16 0 0 0;
#X connect 17 0 14 0;
#X connect 17 1 18 0;
#X connect 18 0 14 0;
#X connect 19 0 0 0;
#X connect 20 0 19 0;
#X connect 21 0 20 0;
#X connect 21 0 7 0;
#X connect 21 1 17 0;
#X connect 21 2 2 1;
#X connect 22 0 24 0;
#X connect 23 0 21 0;
#X connect 24 0 0 0;
#X connect 24 0 25 0;
#X restore 108 495 pd sendOSC;
#N canvas 10 196 1351 687 readsf~ 0;
#X obj 191 87 ggee/getdir;
#X obj 159 29 loadbang;
#N canvas 0 268 450 435 getSR 0;
#X msg 162 109 \$1;
#X msg 162 65 read \$1;
#X obj 162 87 iemlib/soundfile_info;
#X obj 144 164 *;
#X obj 162 44 inlet;
#X obj 102 74 inlet;
#X obj 105 342 outlet;
#X obj 173 164 outlet;
#X msg 266 145 \$3;
#X obj 144 229 <;
#X obj 105 261 spigot;
#X obj 105 206 t f f;
#X obj 222 283 sel 1;
#X connect 0 0 3 1;
#X connect 0 0 7 0;
#X connect 1 0 2 0;
#X connect 2 0 0 0;
#X connect 2 0 8 0;
#X connect 3 0 11 0;
#X connect 4 0 1 0;
#X connect 5 0 3 0;
#X connect 8 0 9 1;
#X connect 9 0 10 1;
#X connect 9 0 12 0;
#X connect 10 0 6 0;
#X connect 11 0 10 0;
#X connect 11 1 9 0;
#X connect 12 1 6 0;
#X restore 497 315 pd getSR;
#X floatatom 349 31 5 0 0 0 - - -, f 5;
#X floatatom 490 527 5 0 0 0 - - -, f 5;
#X obj 104 151 pack s s;
#X obj 159 59 t b b;
#X obj 205 58 bng 15 250 50 0 empty empty empty 17 7 0 10 -262144 -1
-1;
#X msg 104 179 symbol \$2/../audio/\$1;
#X msg 86 88 PARTIE1A.wav;
#X obj 490 547 outlet;
#X text 529 526 position en seconde dans le fichier audio, f 42;
#X obj 349 6 inlet speed;
#X obj 22 16 inlet file;
#X obj 349 56 t f f;
#X obj 497 168 f;
#X obj 349 99 change -1;
#X obj 349 119 sel 1;
#X floatatom 570 340 5 0 0 0 - - -, f 5;
#X obj 104 203 t s s;
#X obj 626 58 table timecode 128;
#X obj 381 428 varispeedsfplay~;
#X obj 490 463 route position;
#X obj 380 528 dac~ 1 2;
#X obj 497 23 inlet position;
#X msg 445 381 position \$1;
#X msg 381 339 speed \$1;
#X msg 104 235 open \$1;
#X floatatom 521 117 5 0 0 0 - - -, f 5;
#X obj 340 569 outlet~;
#X obj 400 568 outlet~;
#X obj 287 432 line~;
#X msg 287 409 \$1 10;
#X obj 368 488 *~;
#X obj 408 488 *~;
#X obj 349 78 != 0;
#X connect 0 0 5 1;
#X connect 1 0 6 0;
#X connect 2 0 25 0;
#X connect 2 1 18 0;
#X connect 3 0 14 0;
#X connect 4 0 10 0;
#X connect 5 0 8 0;
#X connect 6 0 9 0;
#X connect 6 1 0 0;
#X connect 7 0 0 0;
#X connect 8 0 19 0;
#X connect 9 0 5 0;
#X connect 12 0 3 0;
#X connect 13 0 5 0;
#X connect 14 0 35 0;
#X connect 14 1 26 0;
#X connect 15 0 2 0;
#X connect 16 0 17 0;
#X connect 16 0 32 0;
#X connect 17 0 15 0;
#X connect 19 0 27 0;
#X connect 19 1 2 1;
#X connect 21 0 33 0;
#X connect 21 1 34 0;
#X connect 21 2 22 0;
#X connect 22 0 4 0;
#X connect 24 0 15 0;
#X connect 25 0 21 0;
#X connect 26 0 21 0;
#X connect 27 0 21 0;
#X connect 28 0 15 0;
#X connect 31 0 33 1;
#X connect 31 0 34 1;
#X connect 32 0 31 0;
#X connect 33 0 23 0;
#X connect 33 0 29 0;
#X connect 34 0 23 1;
#X connect 34 0 30 0;
#X connect 35 0 16 0;
#X restore 131 419 pd readsf~;
#N canvas 279 213 937 612 source 0;
#X obj 604 143 ggee/getdir;
#X obj 604 120 loadbang;
#X floatatom 623 264 5 0 0 0 - - -, f 5;
#X obj 41 343 adc~ 1 2;
#X obj 604 418 *~;
#X obj 658 417 *~;
#X obj 303 565 outlet~;
#X obj 40 420 *~ 1;
#X obj 94 419 *~ 1;
#X obj 363 565 outlet~;
#X obj 671 119 bng 15 250 50 0 empty empty empty 17 7 0 10 -262144
-1 -1;
#X obj 698 388 == 1;
#X obj 124 355 == 0;
#X obj 184 143 ggee/getdir;
#X obj 184 120 loadbang;
#X floatatom 205 264 5 0 0 0 - - -, f 5;
#X obj 184 418 *~;
#X obj 238 417 *~;
#X obj 251 119 bng 15 250 50 0 empty empty empty 17 7 0 10 -262144
-1 -1;
#X obj 256 388 == 2;
#X floatatom 722 278 5 0 0 0 - - -, f 5;
#X floatatom 444 221 5 0 0 0 - - -, f 5;
#X msg 604 193 open \$1 \, interp 1 \, index 0 \, loop 1 \, bang;
#N canvas 1 80 450 300 getSR 0;
#X msg 162 139 \$1;
#X msg 162 95 read \$1;
#X obj 162 117 iemlib/soundfile_info;
#X obj 144 164 *;
#X obj 162 74 inlet;
#X obj 102 74 inlet;
#X obj 144 186 outlet;
#X connect 0 0 3 1;
#X connect 1 0 2 0;
#X connect 2 0 0 0;
#X connect 3 0 6 0;
#X connect 4 0 1 0;
#X connect 5 0 3 0;
#X restore 205 288 pd getSR;
#N canvas 0 93 450 300 getSR 0;
#X msg 162 139 \$1;
#X msg 162 95 read \$1;
#X obj 162 117 iemlib/soundfile_info;
#X obj 144 164 *;
#X obj 162 74 inlet;
#X obj 102 74 inlet;
#X obj 144 186 outlet;
#X connect 0 0 3 1;
#X connect 1 0 2 0;
#X connect 2 0 0 0;
#X connect 3 0 6 0;
#X connect 4 0 1 0;
#X connect 5 0 3 0;
#X restore 623 288 pd getSR;
#X obj 530 117 loadbang;
#X msg 530 139 0.5;
#X msg 603 170 symbol \$1/Serato2A.wav;
#X msg 184 170 symbol \$1/Serato2B.wav;
#X obj 457 91 inlet speed;
#X obj 527 191 t f;
#X obj 400 117 loadbang;
#X obj 400 161 t f;
#X obj 327 91 inlet seek;
#X msg 400 139 0;
#N canvas 920 326 443 262 old_snippet 0;
#X floatatom 55 56 5 0 0 0 - - -, f 5;
#X obj 36 174 *~;
#X obj 90 173 *~;
#X obj 108 144 == 1;
#X floatatom 154 34 5 0 0 0 - - -, f 5;
#X obj 36 116 readanysf~ 2 100 512;
#X msg 154 53 speed \$1;
#X msg 55 78 time_seek \$1;
#X obj 173 140 route ready;
#X obj 173 162 sel 1;
#X msg 173 184 play \, speed 0.5;
#X connect 0 0 7 0;
#X connect 3 0 2 1;
#X connect 3 0 1 1;
#X connect 4 0 6 0;
#X connect 5 0 1 0;
#X connect 5 1 2 0;
#X connect 5 2 8 0;
#X connect 6 0 5 0;
#X connect 7 0 5 0;
#X connect 8 0 9 0;
#X connect 9 0 10 0;
#X connect 10 0 5 0;
#X restore 404 376 pd old_snippet;
#X obj 71 19 inlet source;
#X obj 185 356 varispeedsfplay~;
#X msg 184 223 open \$1;
#X msg 205 317 position \$1;
#X msg 444 240 speed \$1;
#X msg 623 322 position \$1;
#X msg 722 297 speed \$1;
#X obj 604 360 varispeedsfplay~;
#X obj 71 41 t f f b;
#X connect 0 0 27 0;
#X connect 1 0 0 0;
#X connect 2 0 24 0;
#X connect 3 0 7 0;
#X connect 3 1 8 0;
#X connect 4 0 6 0;
#X connect 5 0 9 0;
#X connect 7 0 6 0;
#X connect 8 0 9 0;
#X connect 10 0 0 0;
#X connect 11 0 5 1;
#X connect 11 0 4 1;
#X connect 12 0 8 1;
#X connect 12 0 7 1;
#X connect 13 0 28 0;
#X connect 14 0 13 0;
#X connect 15 0 23 0;
#X connect 16 0 6 0;
#X connect 17 0 9 0;
#X connect 18 0 13 0;
#X connect 19 0 17 1;
#X connect 19 0 16 1;
#X connect 20 0 42 0;
#X connect 21 0 40 0;
#X connect 22 0 43 0;
#X connect 23 0 39 0;
#X connect 24 0 41 0;
#X connect 25 0 26 0;
#X connect 26 0 30 0;
#X connect 27 0 22 0;
#X connect 27 0 24 1;
#X connect 28 0 38 0;
#X connect 28 0 23 1;
#X connect 29 0 30 0;
#X connect 30 0 20 0;
#X connect 30 0 21 0;
#X connect 31 0 34 0;
#X connect 32 0 2 0;
#X connect 32 0 15 0;
#X connect 33 0 32 0;
#X connect 34 0 32 0;
#X connect 36 0 44 0;
#X connect 37 0 16 0;
#X connect 37 1 17 0;
#X connect 38 0 37 0;
#X connect 39 0 37 0;
#X connect 40 0 37 0;
#X connect 41 0 43 0;
#X connect 42 0 43 0;
#X connect 43 0 4 0;
#X connect 43 1 5 0;
#X connect 44 0 11 0;
#X connect 44 0 19 0;
#X connect 44 1 12 0;
#X restore 163 189 pd source;
#X obj 163 80 vradio 15 1 0 3 empty empty empty 0 -8 0 10 -262144 -1
-1 1;
#X text 182 79 live input;
#X obj 29 393 vsl 15 128 0 127 0 0 empty empty empty 0 -9 0 10 -262144
-1 -1 7815 1;
#X obj 69 393 vsl 15 128 0 127 0 0 empty empty empty 0 -9 0 10 -262144
-1 -1 7795 1;
#X text 182 96 serato face A;
#X text 182 111 serato face B;
#N canvas 857 233 953 843 analysis 0;
#X floatatom 236 241 5 0 0 0 speed - -, f 5;
#X floatatom 351 318 5 0 0 0 position - -, f 5;
#X obj 143 302 route float;
#N canvas 410 279 450 300 speedlimit 0;
#X obj 159 75 inlet;
#X obj 159 141 t a b b;
#X msg 210 186 0;
#X obj 286 248 t f;
#X obj 182 166 delay 10;
#X obj 159 257 outlet;
#X obj 159 119 spigot 1;
#X msg 182 206 1;
#X connect 0 0 6 0;
#X connect 1 0 5 0;
#X connect 1 1 4 0;
#X connect 1 2 2 0;
#X connect 2 0 3 0;
#X connect 3 0 6 1;
#X connect 4 0 7 0;
#X connect 6 0 1 0;
#X connect 7 0 3 0;
#X restore 143 328 pd speedlimit;
#X obj 218 516 *;
#X floatatom 143 362 5 0 0 0 - - -, f 5;
#X obj 142 88 inlet~;
#X obj 235 88 inlet~;
#X obj 250 683 outlet;
#X obj 320 683 outlet;
#X obj 236 218 * 2;
#X obj 555 93 inlet;
#X obj 689 244 outlet;
#X floatatom 649 243 5 0 0 0 - - -, f 5;
#X obj 555 176 t f b, f 6;
#X obj 329 66 inlet;
#X obj 351 295 * 1000;
#X obj 555 145 * 1000;
#N canvas 0 119 450 366 compute_second_duration 0;
#X obj 214 71 int;
#X obj 214 93 change;
#X obj 214 114 t b b;
#X obj 215 135 realtime;
#X obj 214 51 * 10;
#X obj 216 155 * 10;
#X obj 216 274 puremapping/iir 100;
#X msg 143 231 reset \$1;
#X obj 142 209 f;
#X floatatom 233 197 5 0 0 0 - - -, f 5;
#X obj 216 296 / 1000;
#X obj 216 318 outlet;
#X obj 214 29 inlet;
#X obj 142 168 inlet;
#X connect 0 0 1 0;
#X connect 1 0 2 0;
#X connect 2 0 3 0;
#X connect 2 1 3 1;
#X connect 3 0 5 0;
#X connect 4 0 0 0;
#X connect 5 0 6 0;
#X connect 5 0 8 1;
#X connect 5 0 9 0;
#X connect 6 0 10 0;
#X connect 7 0 6 0;
#X connect 8 0 7 0;
#X connect 10 0 11 0;
#X connect 12 0 4 0;
#X connect 13 0 8 0;
#X restore 689 219 pd compute_second_duration;
#X obj 329 91 unpack s f f;
#X obj 351 351 -;
#X text 374 68 [vinyl_type offset timestretch(;
#X msg 650 138 set \$1;
#X obj 650 160 outlet;
#X floatatom 369 220 5 0 0 0 - - -, f 5;
#X msg 469 141 set \$1;
#X obj 469 163 outlet;
#X obj 390 183 inlet;
#X obj 236 538 > 0;
#X obj 218 570 *;
#X msg 329 152 vinyl \$1;
#X obj 329 128 symbol;
#X obj 218 604 t f f;
#X obj 320 588 f, f 7;
#N canvas 0 209 450 338 check 0;
#N canvas 0 151 450 300 stream_check 0;
#X obj 71 79 t b b;
#X msg 71 127 1;
#X msg 101 127 0;
#X obj 71 183 outlet;
#X obj 71 53 inlet;
#X obj 71 156 change -1;
#X obj 101 104 delay 30;
#X connect 0 0 1 0;
#X connect 0 1 6 0;
#X connect 1 0 5 0;
#X connect 2 0 5 0;
#X connect 4 0 0 0;
#X connect 5 0 3 0;
#X connect 6 0 2 0;
#X restore 83 73 pd stream_check;
#X obj 76 176 spigot;
#X obj 83 121 sel 0;
#N canvas 0 180 450 300 stream_check 0;
#X obj 71 79 t b b;
#X msg 71 127 1;
#X msg 101 127 0;
#X obj 71 183 outlet;
#X obj 71 53 inlet;
#X obj 71 156 change -1;
#X obj 101 104 delay 100;
#X connect 0 0 1 0;
#X connect 0 1 6 0;
#X connect 1 0 5 0;
#X connect 2 0 5 0;
#X connect 4 0 0 0;
#X connect 5 0 3 0;
#X connect 6 0 2 0;
#X restore 108 246 pd stream_check;
#X obj 108 268 sel 1;
#X obj 17 25 inlet;
#X obj 83 25 inlet;
#X obj 76 317 outlet;
#X obj 115 153 tgl 15 0 empty empty empty 17 7 0 10 -262144 -1 -1 1
1;
#X obj 108 224 sel 1;
#X obj 76 198 t f f;
#X obj 170 291 t f f;
#X connect 0 0 2 0;
#X connect 1 0 10 0;
#X connect 2 1 8 0;
#X connect 3 0 4 0;
#X connect 4 1 11 0;
#X connect 4 1 8 0;
#X connect 5 0 1 0;
#X connect 6 0 0 0;
#X connect 8 0 1 1;
#X connect 9 0 3 0;
#X connect 10 0 7 0;
#X connect 10 1 9 0;
#X restore 218 450 pd check;
#X floatatom 218 641 5 0 0 0 - - -, f 5;
#X obj 320 544 change;
#X obj 320 566 sel 1;
#X obj 547 417 inlet feedback;
#X floatatom 600 446 5 0 0 0 - - -, f 5;
#N canvas 1360 629 450 377 compare_tc 0;
#X obj 175 106 -;
#X floatatom 175 128 5 0 0 0 - - -, f 5;
#X obj 160 215 == 0;
#X obj 256 224 == 1;
#X obj 217 254 spigot;
#X obj 217 74 t f f;
#X obj 121 254 spigot;
#X obj 121 74 t f f;
#X obj 121 35 inlet;
#X obj 217 35 inlet;
#X obj 162 314 outlet;
#X obj 175 147 abs;
#X obj 322 301 outlet;
#X obj 175 174 < 1;
#X connect 0 0 1 0;
#X connect 1 0 11 0;
#X connect 1 0 12 0;
#X connect 2 0 6 1;
#X connect 3 0 4 1;
#X connect 4 0 10 0;
#X connect 5 0 4 0;
#X connect 5 1 0 1;
#X connect 6 0 10 0;
#X connect 7 0 6 0;
#X connect 7 1 0 0;
#X connect 8 0 7 0;
#X connect 9 0 5 0;
#X connect 11 0 13 0;
#X connect 13 0 2 0;
#X connect 13 0 3 0;
#X restore 461 471 pd compare_tc;
#X floatatom 461 523 5 0 0 0 - - -, f 5;
#X floatatom 339 618 5 0 0 0 - - -, f 5;
#X obj 262 575 change;
#X obj 262 597 sel 1;
#X msg 262 619 0;
#X floatatom 589 521 5 0 0 0 delta - -, f 5;
#X obj 218 472 t f f;
#X obj 183 509 tgl 15 0 empty empty empty 17 7 0 10 -262144 -1 -1 1
1;
#X obj 351 373 moses;
#X obj 351 412 t f f b;
#X floatatom 330 466 5 0 0 0 - - -, f 5;
#X obj 143 193 vinylcontrol~ serato_2a 10, f 27;
#X connect 0 0 4 1;
#X connect 1 0 20 0;
#X connect 2 0 3 0;
#X connect 3 0 5 0;
#X connect 3 0 34 0;
#X connect 4 0 29 0;
#X connect 6 0 52 0;
#X connect 7 0 52 1;
#X connect 10 0 0 0;
#X connect 11 0 17 0;
#X connect 14 0 16 1;
#X connect 14 1 18 0;
#X connect 15 0 19 0;
#X connect 16 0 1 0;
#X connect 16 0 18 1;
#X connect 17 0 14 0;
#X connect 18 0 13 0;
#X connect 18 0 12 0;
#X connect 19 0 31 0;
#X connect 19 1 24 0;
#X connect 19 1 25 0;
#X connect 19 2 17 0;
#X connect 19 2 22 0;
#X connect 20 0 49 0;
#X connect 22 0 23 0;
#X connect 24 0 20 1;
#X connect 25 0 26 0;
#X connect 27 0 24 0;
#X connect 28 0 29 1;
#X connect 28 0 43 0;
#X connect 29 0 32 0;
#X connect 30 0 52 2;
#X connect 31 0 30 0;
#X connect 32 0 35 0;
#X connect 32 1 8 0;
#X connect 33 0 9 0;
#X connect 33 0 42 0;
#X connect 34 0 47 0;
#X connect 36 0 37 0;
#X connect 37 0 33 0;
#X connect 38 0 39 0;
#X connect 38 0 40 1;
#X connect 40 0 41 0;
#X connect 40 0 33 1;
#X connect 40 1 46 0;
#X connect 43 0 44 0;
#X connect 44 0 45 0;
#X connect 45 0 33 0;
#X connect 47 0 4 0;
#X connect 47 0 48 0;
#X connect 47 1 36 0;
#X connect 49 1 50 0;
#X connect 50 0 28 0;
#X connect 50 0 51 0;
#X connect 50 1 40 0;
#X connect 50 2 34 1;
#X connect 52 0 2 0;
#X connect 52 1 10 0;
#X connect 52 2 16 0;
#X restore 164 260 pd analysis;
#N canvas 260 244 858 433 load 1;
#X obj 273 48 route 9 10 11 12 25 26 27 28;
#X obj 263 87 tgl 15 0 empty empty empty 17 7 0 10 -262144 -1 -1 0
1;
#X obj 293 87 tgl 15 0 empty empty empty 17 7 0 10 -262144 -1 -1 1
1;
#X obj 355 98 tgl 15 0 empty empty empty 17 7 0 10 -262144 -1 -1 0
1;
#X obj 452 109 tgl 15 0 empty empty empty 17 7 0 10 -262144 -1 -1 0
1;
#X obj 571 111 tgl 15 0 empty empty empty 17 7 0 10 -262144 -1 -1 0
1;
#X obj 672 109 tgl 15 0 empty empty empty 17 7 0 10 -262144 -1 -1 0
1;
#X obj 787 106 tgl 15 0 empty empty empty 17 7 0 10 -262144 -1 -1 0
1;
#X obj 890 109 tgl 15 0 empty empty empty 17 7 0 10 -262144 -1 -1 0
1;
#N canvas 0 93 692 503 notein 0;
#X obj 274 39 notein;
#X obj 300 268 noteout;
#X obj 412 220 t a;
#X obj 274 171 poly 1 1;
#X obj 274 116 stripnote;
#X obj 327 229 * 13;
#X obj 327 208 > 0;
#X obj 201 268 pack 0 0;
#X obj 201 290 outlet;
#X connect 0 0 4 0;
#X connect 0 1 4 1;
#X connect 0 2 2 0;
#X connect 2 0 1 2;
#X connect 3 1 1 0;
#X connect 3 1 7 0;
#X connect 3 2 6 0;
#X connect 4 0 3 0;
#X connect 4 1 3 1;
#X connect 5 0 1 1;
#X connect 6 0 5 0;
#X connect 6 0 7 1;
#X connect 7 0 8 0;
#X restore 273 27 pd notein;
#X obj 133 294 outlet son;
#X obj 93 142 sel 1;
#X obj 243 142 sel 1;
#X obj 570 410 outlet image;
#X obj 350 143 sel 1;
#X msg 350 176 PARTIE1B.wav;
#X obj 457 145 sel 1;
#X obj 567 145 sel 1;
#X obj 674 146 sel 1;
#X obj 1124 299 outlet vinyl;
#X obj 789 143 sel 1;
#X obj 896 144 sel 1;
#X msg 243 175 PARTIE1A.wav;
#X msg 457 178 Entracte.wav;
#X text 1129 215 face offset timestretch;
#X msg 1130 194 serato_2b 15 1;
#X msg 812 246 test3 120;
#X msg 905 200 test3-108BPM 108;
#X obj 570 389 pack s 120;
#X obj 586 308 list length;
#X obj 586 330 sel 1;
#X obj 538 267 t a a;
#X msg 586 352 120;
#X msg 567 178 PARTIE2A.wav;
#X msg 674 179 PARTIE2B.wav;
#X msg 896 177 SORTIE.wav;
#X msg 93 175 PANCARTES.wav;
#X msg 789 176 SORTIE.wav;
#X msg 1135 264 serato_2b 10 1;
#X msg 1124 235 serato_2a 46 1.4;
#X text 805 277 <nom_du_dossier> <bpm>;
#X msg 252 199 partie1A 120;
#X msg 359 199 partie1B 120;
#X msg 576 201 partie2A 120;
#X msg 683 202 partie2B 120;
#X msg 461 201 Entracte 120;
#X msg 103 195 rien;
#X msg 796 203 Sortie 120;
#X connect 0 0 1 0;
#X connect 0 1 2 0;
#X connect 0 2 3 0;
#X connect 0 3 4 0;
#X connect 0 4 5 0;
#X connect 0 5 6 0;
#X connect 0 6 7 0;
#X connect 0 7 8 0;
#X connect 1 0 11 0;
#X connect 2 0 12 0;
#X connect 3 0 14 0;
#X connect 4 0 16 0;
#X connect 5 0 17 0;
#X connect 6 0 18 0;
#X connect 7 0 20 0;
#X connect 8 0 21 0;
#X connect 9 0 0 0;
#X connect 11 0 38 0;
#X connect 11 0 36 0;
#X connect 11 0 46 0;
#X connect 12 0 22 0;
#X connect 12 0 41 0;
#X connect 12 0 39 0;
#X connect 14 0 15 0;
#X connect 14 0 42 0;
#X connect 14 0 38 0;
#X connect 15 0 10 0;
#X connect 16 0 23 0;
#X connect 16 0 39 0;
#X connect 16 0 45 0;
#X connect 17 0 33 0;
#X connect 17 0 43 0;
#X connect 17 0 39 0;
#X connect 18 0 34 0;
#X connect 18 0 44 0;
#X connect 18 0 38 0;
#X connect 20 0 37 0;
#X connect 20 0 26 0;
#X connect 20 0 38 0;
#X connect 20 0 47 0;
#X connect 21 0 35 0;
#X connect 21 0 27 0;
#X connect 21 0 38 0;
#X connect 22 0 10 0;
#X connect 23 0 10 0;
#X connect 25 0 19 0;
#X connect 26 0 31 0;
#X connect 27 0 31 0;
#X connect 28 0 13 0;
#X connect 29 0 30 0;
#X connect 30 0 32 0;
#X connect 31 0 28 0;
#X connect 31 1 29 0;
#X connect 32 0 28 1;
#X connect 33 0 10 0;
#X connect 34 0 10 0;
#X connect 35 0 10 0;
#X connect 36 0 10 0;
#X connect 37 0 10 0;
#X connect 38 0 19 0;
#X connect 39 0 19 0;
#X connect 41 0 31 0;
#X connect 42 0 31 0;
#X connect 43 0 31 0;
#X connect 44 0 31 0;
#X connect 45 0 31 0;
#X connect 46 0 31 0;
#X connect 47 0 31 0;
#X restore 85 192 pd load;
#N canvas 340 225 859 300 init 0;
#X obj 131 85 declare -path abs -path bin;
#X obj 64 132 bng 15 250 50 0 empty empty empty 17 7 0 10 -262144 -1
-1;
#X obj 64 158 selectAudioDevice USB_AUDIO_CODEC_(hardware) HDA_Intel_PCH_(hardware)
, f 69;
#X obj 64 199 spigot;
#X obj 102 179 tgl 15 0 empty empty empty 17 7 0 10 -262144 -1 -1 0
1;
#X obj 64 221 print;
#X connect 1 0 2 0;
#X connect 2 0 3 0;
#X connect 3 0 5 0;
#X connect 4 0 3 1;
#X restore 64 58 pd init;
#X obj 311 226 nbx 5 14 -1e+37 1e+37 0 1 empty empty empty 0 -8 0 10
-262144 -1 -1 1.4 256;
#X floatatom 238 285 5 0 0 0 - - -, f 5;
#N canvas 0 125 659 456 readme 0;
#X text 108 21 La valeur de timecode n'est utilisé que lors d'un saut.
C'est à dire lorsqu'on déplace le bras sur la platine.;
#X text 111 161 Par exemple lorsque le vinyle tourne à vitesse nominale
\, si le son dure 20 minutes \, en se plaçant au milieu de la face
A vinyle on sera à la 5e minute (car la face A fait 10 minutes) et
à la fin on sera à la 10e minute. Sans pouvoir aller plus loin !
Alors que si on règle le stretch à 2 au milieu du vinyle on sera
à la 10e minute !;
#X text 103 56 Sur le vinyle les sillons sont plus larges toutes les
100 valeurs de timecode. Ça fait un repère visuel pour ne pas sauter
n'importe où.;
#X text 103 104 Le facteur "Time Stretch" permet d'étirer le timecode.
Ça peut servir pour pouvoir se déplacer dans un son plus long que
la durée du vinyle.;
#X restore 367 255 pd readme;
#X floatatom 193 150 5 0 0 0 - - -, f 5;
#X floatatom 223 170 5 0 0 0 - - -, f 5;
#X text 234 149 position;
#X text 265 169 vitesse;
#X text 145 51 Choisir l'entrée :;
#X text 155 61 (live par défault);
#X text 277 285 Real stretch factor;
#X text 313 211 Time stretch;
#X obj 219 226 nbx 5 14 -1e+37 1e+37 0 1 empty empty empty 0 -8 0 10
-262144 -1 -1 46 256;
#X text 221 211 Offset;
#X floatatom 201 353 5 0 0 0 - - -, f 5;
#X floatatom 164 353 5 0 0 0 - - -, f 5;
#X obj 266 316 env~;
#X floatatom 266 338 5 0 0 0 - - -, f 5;
#X obj 306 316 env~;
#X floatatom 306 338 5 0 0 0 - - -, f 5;
#X obj 267 360 vsl 15 128 0 127 0 0 empty empty empty 0 -9 0 10 -262144
-1 -1 6192 1;
#X obj 307 360 vsl 15 128 0 127 0 0 empty empty empty 0 -9 0 10 -262144
-1 -1 6192 1;
#X floatatom 359 532 5 0 0 0 - - -, f 5;
#X text 62 531 position en seconde dans le fichier audio, f 42;
#X connect 0 0 1 0;
#X connect 2 0 3 0;
#X connect 2 0 11 0;
#X connect 4 0 5 0;
#X connect 4 0 12 0;
#X connect 7 0 33 0;
#X connect 7 1 35 0;
#X connect 7 2 6 2;
#X connect 7 2 39 0;
#X connect 7 2 15 4;
#X connect 8 0 2 0;
#X connect 8 0 15 0;
#X connect 8 1 4 0;
#X connect 8 1 15 1;
#X connect 9 0 8 0;
#X connect 15 0 32 0;
#X connect 15 1 31 0;
#X connect 15 2 29 0;
#X connect 15 3 18 0;
#X connect 15 4 19 0;
#X connect 16 0 7 0;
#X connect 16 1 6 0;
#X connect 16 2 15 2;
#X connect 18 0 15 5;
#X connect 21 0 8 1;
#X connect 22 0 8 2;
#X connect 29 0 15 3;
#X connect 31 0 7 2;
#X connect 32 0 7 1;
#X connect 33 0 34 0;
#X connect 33 0 37 0;
#X connect 35 0 36 0;
#X connect 35 0 38 0;
