#N canvas 982 142 909 948 10;
#X obj 72 551 gemhead;
#X obj 72 886 pix_texture;
#X obj 14 105 gemwin;
#X obj 248 368 ggee/getdir;
#X obj 248 349 bng 15 250 50 0 empty empty empty 17 7 0 10 -262144
-1 -1;
#X obj 89 779 /;
#X obj 195 217 loadbang;
#X obj 13 -2 loadbang;
#X msg 24 78 destroy;
#X obj 89 801 * 4;
#X obj 72 908 rectangle 4 4;
#X obj 402 126 net/udpreceive 6667;
#X obj 402 148 osc/unpackOSC;
#X msg 597 215 \; pd quit;
#X obj 195 391 pack s s;
#X obj 402 168 osc/routeOSC /speed /position /ping /quit /open;
#X msg 94 91 dimen 1280 720 \, border 0 \, offset 1366 0 \, frame 60
\, create \, 1;
#X obj 13 20 delay 2000;
#X msg 14 40 dimen 1280 720 \, border 1 \, offset 1366 0 \, frame 60
\, create \, 1;
#X obj 72 673 pix_image;
#X obj 72 745 pix_info, f 18;
#X obj 467 484 * 96;
#X floatatom 467 196 5 0 0 1 position_(second) - -, f 5;
#X msg 288 224 PARTIE1A;
#X msg 298 243 PARTIE1B;
#X msg 195 598 open \$1;
#X obj 237 460 t b l;
#X msg 195 262 partie1A;
#N canvas 0 93 675 594 ping 0;
#X obj 224 461 net/udpsend;
#X msg 266 437 connect 127.0.0.1 6666;
#X obj 224 370 spigot;
#X msg 275 417 disconnect;
#X obj 266 397 loadbang;
#X obj 224 226 tgl 15 0 empty empty empty 17 7 0 10 -262144 -1 -1 1
1;
#N canvas 1 95 450 300 stream_check 0;
#X obj 17 46 t b b;
#X msg 17 94 1;
#X msg 47 94 0;
#X obj 17 150 outlet;
#X obj 17 20 inlet;
#X obj 17 123 change -1;
#X obj 47 71 delay 2000;
#X connect 0 0 1 0;
#X connect 0 1 6 0;
#X connect 1 0 5 0;
#X connect 2 0 5 0;
#X connect 4 0 0 0;
#X connect 5 0 3 0;
#X connect 6 0 2 0;
#X restore 224 153 pd stream_check;
#X obj 224 258 metro 1000;
#X obj 224 302 osc/packOSC;
#X msg 224 280 send /reconnect;
#X obj 345 127 loadbang;
#X msg 345 149 1;
#X obj 224 175 == 0;
#X obj 224 111 inlet;
#X connect 0 0 2 1;
#X connect 1 0 0 0;
#X connect 2 0 0 0;
#X connect 3 0 0 0;
#X connect 4 0 1 0;
#X connect 5 0 7 0;
#X connect 6 0 12 0;
#X connect 7 0 9 0;
#X connect 8 0 2 0;
#X connect 9 0 8 0;
#X connect 10 0 11 0;
#X connect 11 0 5 0;
#X connect 12 0 5 0;
#X connect 13 0 6 0;
#X restore 532 219 pd ping;
#X obj 534 578 mrpeach/midifile;
#X msg 534 488 read \$2/../midi/\$1.mid;
#N canvas 0 106 441 424 blank 0;
#X obj 151 200 route load;
#X obj 151 222 route success fail;
#X msg 212 245 0;
#X msg 151 245 1;
#X obj 98 299 outlet;
#X obj 98 130 inlet;
#X obj 151 130 inlet;
#X obj 98 277 spigot 0;
#X connect 0 0 1 0;
#X connect 1 0 3 0;
#X connect 1 1 2 0;
#X connect 2 0 7 1;
#X connect 3 0 7 1;
#X connect 5 0 7 0;
#X connect 6 0 0 0;
#X connect 7 0 4 0;
#X restore 72 703 pd blank;
#X obj 195 490 symbol;
#X msg 195 414 \$2/../image/\$1;
#X obj 643 600 route ticks_per_quarternote;
#X floatatom 643 622 5 0 0 0 - - -, f 5;
#X obj 467 504 int;
#X obj 467 524 change;
#X obj 467 544 t b f;
#X obj 534 700 cyclone/midiparse;
#X obj 534 761 list append;
#X obj 534 783 t b l;
#X obj 556 434 ggee/getdir;
#X obj 556 415 bng 15 250 50 0 empty empty empty 17 7 0 10 -262144
-1 -1;
#X msg 556 456 read \$1/../midi/MidiClock.mid;
#X obj 643 405 ggee/getdir;
#X obj 643 386 bng 15 250 50 0 empty empty empty 17 7 0 10 -262144
-1 -1;
#X obj 195 239 t b b b;
#X msg 517 428 0;
#X obj 588 526 hradio 15 1 0 4 empty empty empty 0 -8 0 10 -262144
-1 -1 0;
#X obj 384 577 metro 10.41;
#X obj 386 555 tgl 15 0 empty empty empty 17 7 0 10 -262144 -1 -1 0
1;
#X msg 588 546 verbose \$1;
#X obj 534 849 print list;
#X floatatom 422 552 5 0 0 0 - - -, f 5;
#X obj 534 613 list split 1;
#X obj 582 669 list;
#X obj 534 635 t b f;
#X msg 643 427 read \$1/../midi/miditest2.mid;
#X msg 194 540 symbol \$1/\$3/\$4_\$2.jpg;
#X obj 534 805 del 0;
#X obj 534 829 list;
#X obj 615 736 print ctl;
#X obj 430 726 print note;
#X obj 708 533 bng 15 250 50 0 empty empty empty 17 7 0 10 -262144
-1 -1;
#X msg 534 730 \$1;
#X obj 686 666 / 96;
#X floatatom 686 688 5 0 0 0 - - -, f 5;
#X obj 537 329 line;
#X msg 537 282 30 \, 65 15000;
#X obj 195 518 list append 0 10 10;
#X connect 0 0 19 0;
#X connect 1 0 10 0;
#X connect 3 0 14 1;
#X connect 4 0 3 0;
#X connect 5 0 9 0;
#X connect 6 0 47 0;
#X connect 7 0 17 0;
#X connect 8 0 2 0;
#X connect 9 0 10 1;
#X connect 11 0 12 0;
#X connect 12 0 15 0;
#X connect 14 0 33 0;
#X connect 14 0 30 0;
#X connect 15 1 22 0;
#X connect 15 2 28 0;
#X connect 15 3 13 0;
#X connect 15 4 14 0;
#X connect 16 0 2 0;
#X connect 17 0 18 0;
#X connect 18 0 2 0;
#X connect 19 0 31 0;
#X connect 19 1 31 1;
#X connect 20 0 1 0;
#X connect 20 1 5 0;
#X connect 20 2 5 1;
#X connect 21 0 36 0;
#X connect 22 0 21 0;
#X connect 23 0 14 0;
#X connect 24 0 14 0;
#X connect 25 0 19 0;
#X connect 26 0 32 0;
#X connect 26 1 70 1;
#X connect 27 0 14 0;
#X connect 29 0 55 0;
#X connect 29 1 66 0;
#X connect 29 2 34 0;
#X connect 30 0 29 0;
#X connect 31 0 20 0;
#X connect 32 0 70 0;
#X connect 33 0 32 0;
#X connect 34 0 35 0;
#X connect 34 0 21 1;
#X connect 35 0 66 1;
#X connect 36 0 37 0;
#X connect 37 0 38 0;
#X connect 38 0 29 0;
#X connect 38 1 29 0;
#X connect 39 0 63 0;
#X connect 39 0 65 0;
#X connect 39 2 40 1;
#X connect 39 2 62 0;
#X connect 40 0 41 0;
#X connect 41 0 60 0;
#X connect 41 1 61 1;
#X connect 42 0 44 0;
#X connect 43 0 42 0;
#X connect 44 0 29 0;
#X connect 45 0 58 0;
#X connect 46 0 45 0;
#X connect 47 0 27 0;
#X connect 47 1 4 0;
#X connect 47 2 48 0;
#X connect 48 0 49 0;
#X connect 49 0 52 0;
#X connect 50 0 29 0;
#X connect 51 0 50 0;
#X connect 52 0 29 0;
#X connect 54 0 50 1;
#X connect 55 0 57 0;
#X connect 55 1 56 1;
#X connect 56 0 55 0;
#X connect 57 0 56 0;
#X connect 57 1 39 0;
#X connect 58 0 29 0;
#X connect 59 0 25 0;
#X connect 60 0 61 0;
#X connect 61 0 53 0;
#X connect 61 0 26 0;
#X connect 64 0 29 0;
#X connect 65 0 40 0;
#X connect 66 0 67 0;
#X connect 68 0 22 0;
#X connect 69 0 68 0;
#X connect 70 0 59 0;
