#N canvas 99 400 629 159 10;
#N canvas 123 562 1218 554 cache-misere 1;
#X obj 117 567 gemhead;
#X obj 117 902 pix_texture;
#X obj 293 384 ggee/getdir;
#X obj 293 365 bng 15 250 50 0 empty empty empty 17 7 0 10 -262144
-1 -1;
#X obj 134 795 /;
#X obj 240 233 loadbang;
#X obj 134 817 * 4;
#X obj 117 924 rectangle 4 4;
#X obj 447 142 net/udpreceive 6667;
#X obj 447 164 osc/unpackOSC;
#X msg 642 231 \; pd quit;
#X obj 240 407 pack s s;
#X obj 447 184 osc/routeOSC /speed /position /ping /quit /open;
#X obj 117 689 pix_image;
#X obj 117 761 pix_info, f 18;
#X obj 512 500 * 96;
#X floatatom 563 359 5 0 0 1 position_(second) - -, f 5;
#X msg 240 579 open \$1;
#X obj 282 476 t b l;
#X msg 240 278 partie1A;
#N canvas 0 93 675 594 ping 0;
#X obj 224 461 net/udpsend;
#X msg 266 437 connect 127.0.0.1 6666;
#X obj 224 370 spigot;
#X msg 275 417 disconnect;
#X obj 266 397 loadbang;
#X obj 224 226 tgl 15 0 empty empty empty 17 7 0 10 -262144 -1 -1 1
1;
#N canvas 1 95 450 300 stream_check 0;
#X obj 17 46 t b b;
#X msg 17 94 1;
#X msg 47 94 0;
#X obj 17 150 outlet;
#X obj 17 20 inlet;
#X obj 17 123 change -1;
#X obj 47 71 delay 2000;
#X connect 0 0 1 0;
#X connect 0 1 6 0;
#X connect 1 0 5 0;
#X connect 2 0 5 0;
#X connect 4 0 0 0;
#X connect 5 0 3 0;
#X connect 6 0 2 0;
#X restore 224 153 pd stream_check;
#X obj 224 258 metro 1000;
#X obj 224 302 osc/packOSC;
#X msg 224 280 send /reconnect;
#X obj 345 127 loadbang;
#X msg 345 149 1;
#X obj 224 175 == 0;
#X obj 224 111 inlet;
#X connect 0 0 2 1;
#X connect 1 0 0 0;
#X connect 2 0 0 0;
#X connect 3 0 0 0;
#X connect 4 0 1 0;
#X connect 5 0 7 0;
#X connect 6 0 12 0;
#X connect 7 0 9 0;
#X connect 8 0 2 0;
#X connect 9 0 8 0;
#X connect 10 0 11 0;
#X connect 11 0 5 0;
#X connect 12 0 5 0;
#X connect 13 0 6 0;
#X restore 577 235 pd ping;
#X obj 579 594 mrpeach/midifile;
#X msg 579 504 read \$2/../midi/\$1.mid;
#N canvas 0 132 441 424 blank 0;
#X obj 151 222 route success fail;
#X msg 212 245 0;
#X msg 151 245 1;
#X obj 98 299 outlet;
#X obj 98 130 inlet;
#X obj 151 130 inlet;
#X obj 98 277 spigot 0;
#X obj 151 200 route load mute;
#X connect 0 0 2 0;
#X connect 0 1 1 0;
#X connect 1 0 6 1;
#X connect 2 0 6 1;
#X connect 4 0 6 0;
#X connect 5 0 7 0;
#X connect 6 0 3 0;
#X connect 7 0 0 0;
#X connect 7 1 1 0;
#X restore 117 719 pd blank;
#X obj 240 506 symbol;
#X floatatom 688 638 5 0 0 0 - - -, f 5;
#X obj 512 560 t b f;
#X obj 579 716 cyclone/midiparse;
#X obj 579 827 list append;
#X obj 579 849 t b l;
#X obj 601 450 ggee/getdir;
#X obj 601 431 bng 15 250 50 0 empty empty empty 17 7 0 10 -262144
-1 -1;
#X msg 601 472 read \$1/../midi/MidiClock.mid;
#X obj 688 421 ggee/getdir;
#X obj 688 402 bng 15 250 50 0 empty empty empty 17 7 0 10 -262144
-1 -1;
#X obj 240 255 t b b b;
#X obj 633 542 hradio 15 1 0 4 empty empty empty 0 -8 0 10 -262144
-1 -1 1;
#X msg 633 562 verbose \$1;
#X obj 579 915 print list;
#X obj 579 629 list split 1;
#X obj 627 685 list;
#X obj 579 651 t b f;
#X msg 688 443 read \$1/../midi/miditest2.mid;
#X msg 240 556 symbol \$1/\$3/\$4_\$2.jpg;
#X obj 579 871 del 0;
#X obj 579 895 list;
#X obj 753 549 bng 15 250 50 0 empty empty empty 17 7 0 10 -262144
-1 -1;
#X msg 579 746 \$1;
#X obj 670 664 / 96;
#X floatatom 670 685 5 0 0 0 - - -, f 5;
#X obj 684 345 line;
#X obj 240 534 list append 0 10 10;
#X obj 512 323 spigot 1;
#X obj 565 302 tgl 15 0 empty empty empty 17 7 0 10 -262144 -1 -1 1
1;
#X msg 196 687 mute;
#N canvas 1 108 413 618 passall 0;
#X floatatom 119 171 5 0 0 0 - - -, f 5;
#X obj 119 359 until;
#X floatatom 117 31 5 0 0 0 - - -, f 5;
#X obj 119 421 f;
#X obj 119 443 + 1;
#X obj 119 149 -;
#X floatatom 119 473 5 0 0 0 - - -, f 5;
#X obj 119 208 abs;
#X obj 119 188 t f f;
#X obj 210 213 > 0;
#X obj 210 235 sel 0, f 8;
#X msg 210 257 -1;
#X obj 119 251 moses 10;
#X msg 132 300 10;
#X obj 201 326 f;
#X obj 201 358 - 10;
#X obj 251 294 * 10;
#X obj 132 280 t b b;
#X floatatom 201 380 5 0 0 0 - - -, f 5;
#X obj 117 80 change;
#X obj 117 118 t f f f;
#X obj 117 8 inlet;
#X obj 119 492 outlet;
#X obj 117 50 int;
#X connect 0 0 8 0;
#X connect 1 0 3 0;
#X connect 2 0 23 0;
#X connect 3 0 4 0;
#X connect 4 0 3 1;
#X connect 4 0 6 0;
#X connect 5 0 0 0;
#X connect 6 0 22 0;
#X connect 7 0 12 0;
#X connect 8 0 7 0;
#X connect 8 1 9 0;
#X connect 9 0 10 0;
#X connect 10 0 11 0;
#X connect 10 1 4 1;
#X connect 10 1 16 0;
#X connect 11 0 4 1;
#X connect 11 0 16 0;
#X connect 12 0 1 0;
#X connect 12 1 17 0;
#X connect 13 0 1 0;
#X connect 14 0 15 0;
#X connect 15 0 3 1;
#X connect 15 0 18 0;
#X connect 16 0 15 1;
#X connect 17 0 13 0;
#X connect 17 1 14 0;
#X connect 19 0 20 0;
#X connect 20 0 5 1;
#X connect 20 1 5 0;
#X connect 20 2 14 1;
#X connect 21 0 2 0;
#X connect 23 0 19 0;
#X restore 512 538 pd passall;
#X msg 240 430 symbol \$2/../image/\$1;
#X obj 14 123 gemwin;
#X obj 14 16 loadbang;
#X msg 24 96 destroy;
#X obj 14 36 delay 2000;
#X msg 94 109 dimen 649 360 \, border 1 \, offset 1366 0 \, frame 60
\, create \, 1;
#X msg 333 240 test;
#X obj 283 623 print;
#X obj 656 759 print ctl;
#X obj 600 801 route 127;
#X text 672 804 enlève le contrôleur 127 qui traine;
#X msg 684 298 0 \, 60 60000;
#X msg 782 305 stop;
#N canvas 1 82 450 300 automute 0;
#X obj 168 87 t f f;
#X obj 180 122 -;
#X obj 180 144 abs;
#X obj 180 165 > 5;
#X obj 168 61 inlet;
#X obj 180 209 outlet;
#X text 117 19 blank screen on timecode jump;
#X obj 180 187 sel 1;
#X connect 0 0 1 1;
#X connect 0 1 1 0;
#X connect 1 0 2 0;
#X connect 2 0 3 0;
#X connect 3 0 7 0;
#X connect 4 0 0 0;
#X connect 7 0 5 0;
#X restore 435 430 pd automute;
#X msg 14 57 dimen 1280 719 \, border 0 \, menubar 0 \, offset 1366
0 \, frame 60 \, create \, 1;
#X obj 512 364 f;
#X msg 343 259 test3;
#X floatatom 771 789 5 0 0 0 - - -, f 5;
#X text 809 789 tick per microsecond;
#X obj 688 616 route ticks_per_quarternote microsec_per_quarternote
;
#X obj 868 667 print microsec_per_quarternote;
#X obj 803 681 / 1000;
#X obj 803 703 / 1000;
#X obj 771 737 / 0.5;
#X obj 936 412 / 120;
#X obj 707 215 unpack s 120;
#X obj 771 759 * 1;
#X floatatom 969 388 5 0 0 0 - - -, f 5;
#X floatatom 936 434 5 0 0 0 - - -, f 5;
#X obj 707 245 sel rien;
#X msg 565 274 0;
#X obj 196 365 t b a;
#X msg 525 274 1;
#X msg 250 308 partie1B;
#X msg 346 475 \$1 25 25;
#X floatatom 344 458 5 0 0 2 - - -, f 5;
#X floatatom 415 455 5 0 0 2 - - -, f 5;
#X msg 417 472 \$1 28 28;
#X floatatom 823 529 5 0 0 1 position_(tick) - -, f 5;
#X msg 562 444 1;
#X connect 0 0 13 0;
#X connect 1 0 7 0;
#X connect 2 0 11 1;
#X connect 3 0 2 0;
#X connect 4 0 6 0;
#X connect 5 0 35 0;
#X connect 6 0 7 1;
#X connect 8 0 9 0;
#X connect 9 0 12 0;
#X connect 11 0 56 0;
#X connect 11 0 22 0;
#X connect 12 1 52 0;
#X connect 12 2 20 0;
#X connect 12 3 10 0;
#X connect 12 4 81 0;
#X connect 13 0 23 0;
#X connect 13 1 23 1;
#X connect 14 0 1 0;
#X connect 14 1 4 0;
#X connect 14 2 4 1;
#X connect 15 0 55 0;
#X connect 16 0 71 0;
#X connect 17 0 13 0;
#X connect 17 0 63 0;
#X connect 18 0 24 0;
#X connect 18 1 51 1;
#X connect 19 0 87 0;
#X connect 21 0 39 0;
#X connect 21 1 48 0;
#X connect 21 2 75 0;
#X connect 22 0 21 0;
#X connect 23 0 14 0;
#X connect 24 0 51 0;
#X connect 25 0 48 1;
#X connect 26 0 21 0;
#X connect 26 1 21 0;
#X connect 27 0 47 0;
#X connect 27 2 64 0;
#X connect 27 2 65 0;
#X connect 28 0 29 0;
#X connect 29 0 44 0;
#X connect 29 1 45 1;
#X connect 30 0 32 0;
#X connect 31 0 30 0;
#X connect 32 0 21 0;
#X connect 33 0 42 0;
#X connect 34 0 33 0;
#X connect 35 0 19 0;
#X connect 35 1 3 0;
#X connect 35 2 95 0;
#X connect 36 0 37 0;
#X connect 37 0 21 0;
#X connect 39 0 41 0;
#X connect 39 1 40 1;
#X connect 40 0 39 0;
#X connect 41 0 40 0;
#X connect 41 1 27 0;
#X connect 42 0 21 0;
#X connect 43 0 17 0;
#X connect 44 0 45 0;
#X connect 45 0 38 0;
#X connect 45 0 18 0;
#X connect 46 0 21 0;
#X connect 47 0 28 0;
#X connect 48 0 49 0;
#X connect 50 0 16 0;
#X connect 51 0 43 0;
#X connect 52 0 71 0;
#X connect 53 0 52 1;
#X connect 54 0 23 1;
#X connect 55 0 26 0;
#X connect 56 0 24 1;
#X connect 58 0 60 0;
#X connect 59 0 57 0;
#X connect 60 0 70 0;
#X connect 61 0 57 0;
#X connect 62 0 11 0;
#X connect 65 1 28 1;
#X connect 67 0 50 0;
#X connect 68 0 50 0;
#X connect 69 0 54 0;
#X connect 70 0 57 0;
#X connect 71 0 69 0;
#X connect 71 0 15 0;
#X connect 72 0 11 0;
#X connect 73 0 15 1;
#X connect 75 0 25 0;
#X connect 75 0 79 0;
#X connect 75 1 76 0;
#X connect 75 1 77 0;
#X connect 77 0 78 0;
#X connect 78 0 79 1;
#X connect 79 0 82 0;
#X connect 80 0 82 1;
#X connect 80 0 84 0;
#X connect 81 0 85 0;
#X connect 81 1 83 0;
#X connect 82 0 73 0;
#X connect 83 0 80 0;
#X connect 85 0 86 0;
#X connect 85 0 54 0;
#X connect 85 1 87 0;
#X connect 86 0 53 0;
#X connect 87 0 54 0;
#X connect 87 0 88 0;
#X connect 87 1 11 0;
#X connect 88 0 53 0;
#X connect 89 0 87 0;
#X connect 90 0 18 0;
#X connect 91 0 90 0;
#X connect 92 0 93 0;
#X connect 93 0 18 0;
#X connect 94 0 21 0;
#X connect 95 0 36 0;
#X restore 281 10 pd cache-misere;
#X text 115 53 Patch de chargement de photos en fonction d'un timecode
;
