#N canvas 632 93 715 948 10;
#X obj 72 271 gemhead;
#X obj 72 673 pix_film;
#X obj 72 836 pix_texture;
#X obj 13 105 gemwin;
#X obj 143 314 ggee/getdir;
#X obj 143 295 bng 15 250 50 0 empty empty empty 17 7 0 10 -262144
-1 -1;
#X msg 102 588 auto \$1;
#X floatatom 102 559 5 0 0 0 - - -, f 5;
#X obj 241 504 * 60;
#X obj 98 695 unpack 0 0 0 0;
#X obj 129 729 /;
#X text 201 694 duration w h fps;
#X obj 90 163 loadbang;
#X obj 13 -2 loadbang;
#X msg 23 78 destroy;
#X text 98 539 speed;
#X floatatom 241 486 5 0 0 1 position_(second) - -, f 5;
#X obj 129 751 * 4;
#X obj 72 858 rectangle 4 4;
#X obj 304 736 - 1;
#X floatatom 89 743 5 0 0 0 - - -, f 5;
#X obj 241 524 moses 0;
#X obj 287 544 moses 100;
#X floatatom 177 593 5 0 0 0 - - -, f 5;
#X msg 168 741 1;
#X obj 72 807 spigot 1;
#X obj 72 493 t a b;
#X obj 123 505 r speed;
#X obj 241 458 r position;
#X obj 111 386 net/udpreceive 6667;
#X obj 111 408 osc/unpackOSC;
#X obj 477 781 net/udpsend;
#X msg 519 757 connect 127.0.0.1 6666;
#X obj 477 690 spigot;
#X msg 528 737 disconnect;
#X obj 519 717 loadbang;
#X obj 477 546 tgl 15 0 empty empty empty 17 7 0 10 -262144 -1 -1 0
1;
#N canvas 1 95 450 300 stream_check 0;
#X obj 17 46 t b b;
#X msg 17 94 1;
#X msg 47 94 0;
#X obj 17 150 outlet;
#X obj 17 20 inlet;
#X obj 17 123 change -1;
#X obj 47 71 delay 2000;
#X connect 0 0 1 0;
#X connect 0 1 6 0;
#X connect 1 0 5 0;
#X connect 2 0 5 0;
#X connect 4 0 0 0;
#X connect 5 0 3 0;
#X connect 6 0 2 0;
#X restore 477 473 pd stream_check;
#X obj 477 578 metro 1000;
#X obj 477 622 osc/packOSC;
#X msg 477 600 send /reconnect;
#X obj 598 447 loadbang;
#X msg 598 469 1;
#X obj 477 495 == 0;
#X msg 384 528 \; pd quit;
#X floatatom 183 623 5 0 0 0 - - -, f 5;
#X obj 90 337 pack s s;
#X obj 90 185 t b b;
#X msg 90 360 open \$2/../video/\$1;
#X msg 190 137 PARTIE1A.mov;
#X msg 200 156 PARTIE1B.mov;
#X obj 111 428 osc/routeOSC /speed /position /ping /quit /open;
#X msg 94 91 dimen 1280 720 \, border 0 \, offset 1366 0 \, frame 60
\, create \, 1;
#X msg 90 208 PARTIE1A.mov;
#X obj 13 20 delay 2000;
#X msg 14 40 dimen 1280 720 \, border 1 \, offset 1366 0 \, frame 60
\, create \, 1;
#X connect 0 0 26 0;
#X connect 1 0 25 0;
#X connect 1 1 9 0;
#X connect 1 2 45 0;
#X connect 2 0 18 0;
#X connect 4 0 46 1;
#X connect 5 0 4 0;
#X connect 6 0 1 0;
#X connect 7 0 6 0;
#X connect 8 0 21 0;
#X connect 9 0 19 0;
#X connect 9 0 20 0;
#X connect 9 1 10 0;
#X connect 9 2 10 1;
#X connect 9 3 8 1;
#X connect 10 0 17 0;
#X connect 12 0 47 0;
#X connect 13 0 54 0;
#X connect 14 0 3 0;
#X connect 16 0 8 0;
#X connect 17 0 18 1;
#X connect 19 0 22 1;
#X connect 21 1 22 0;
#X connect 22 0 23 0;
#X connect 23 0 1 1;
#X connect 24 0 25 1;
#X connect 25 0 2 0;
#X connect 26 0 1 0;
#X connect 26 1 24 0;
#X connect 27 0 7 0;
#X connect 28 0 16 0;
#X connect 29 0 30 0;
#X connect 30 0 51 0;
#X connect 31 0 33 1;
#X connect 32 0 31 0;
#X connect 33 0 31 0;
#X connect 34 0 31 0;
#X connect 35 0 32 0;
#X connect 36 0 38 0;
#X connect 37 0 43 0;
#X connect 38 0 40 0;
#X connect 39 0 33 0;
#X connect 40 0 39 0;
#X connect 41 0 42 0;
#X connect 42 0 36 0;
#X connect 43 0 36 0;
#X connect 46 0 48 0;
#X connect 47 0 53 0;
#X connect 47 1 5 0;
#X connect 48 0 1 0;
#X connect 49 0 46 0;
#X connect 50 0 46 0;
#X connect 51 0 7 0;
#X connect 51 1 16 0;
#X connect 51 2 37 0;
#X connect 51 3 44 0;
#X connect 51 4 46 0;
#X connect 52 0 3 0;
#X connect 53 0 46 0;
#X connect 54 0 55 0;
#X connect 55 0 3 0;
